/* XPM */
static char *_e9a2e34c00a494c92d905550ade0a34pdFBRBupd5JEiXv0[] = {
/* columns rows colors chars-per-pixel */
"64 64 189 2 ",
"   c None",
".  c #4F343B",
"X  c #53363D",
"o  c #54383E",
"O  c #5A393E",
"+  c #59353D",
"@  c #62373F",
"#  c #543741",
"$  c #553A42",
"%  c #5B3C42",
"&  c #583742",
"*  c #613D45",
"=  c #653D48",
"-  c #7A3F4D",
";  c #5D4146",
":  c #5C4149",
">  c #574044",
",  c #5B4954",
"<  c #634146",
"1  c #63444A",
"2  c #69464B",
"3  c #63494E",
"4  c #6C494E",
"5  c #7B424E",
"6  c #714A4F",
"7  c #6C4D53",
"8  c #664F50",
"9  c #724451",
"0  c #7D4551",
"q  c #754C53",
"w  c #7D4953",
"e  c #6A5356",
"r  c #765155",
"t  c #71555A",
"y  c #7B5559",
"u  c #73595B",
"i  c #7E585D",
"p  c #785457",
"a  c #6B5666",
"s  c #675E6B",
"d  c #785D63",
"f  c #786161",
"g  c #6B6874",
"h  c #814C55",
"j  c #864E5A",
"k  c #814756",
"l  c #934F5E",
"z  c #845156",
"x  c #86525A",
"c  c #815A5F",
"v  c #895B5A",
"b  c #88575A",
"n  c #93505F",
"m  c #835C60",
"M  c #8D5B66",
"N  c #945262",
"B  c #995665",
"V  c #925B63",
"C  c #995A66",
"Z  c #9B5C6B",
"A  c #985768",
"S  c #A25E6F",
"D  c #A25D71",
"F  c #8A6266",
"G  c #8E6668",
"H  c #85696D",
"J  c #946266",
"K  c #95646A",
"L  c #9D626D",
"P  c #936A6B",
"I  c #9E696E",
"U  c #9A706F",
"Y  c #9D6572",
"T  c #9D6A72",
"R  c #9B6B7A",
"E  c #976871",
"W  c #8B7374",
"Q  c #9D7373",
"!  c #907A79",
"~  c #907777",
"^  c #A1656E",
"/  c #A1696F",
"(  c #A26572",
")  c #A36D73",
"_  c #A56E7A",
"`  c #A8687A",
"'  c #A57475",
"]  c #A87577",
"[  c #A67976",
"{  c #A6737A",
"}  c #A9757A",
"|  c #A57A79",
" . c #AC7F7C",
".. c #AD807D",
"X. c #747383",
"o. c #99778A",
"O. c #9A7589",
"+. c #B56D84",
"@. c #AD7B84",
"#. c #AD7A86",
"$. c #B07C86",
"%. c #B47988",
"&. c #C47B95",
"*. c #C17793",
"=. c #9A8584",
"-. c #9D879D",
";. c #AD808C",
":. c #A48D8C",
">. c #B4838C",
",. c #B48490",
"<. c #BA8C94",
"1. c #B68F9B",
"2. c #B38C97",
"3. c #AC9694",
"4. c #A99798",
"5. c #B7909C",
"6. c #B69F9E",
"7. c #BA929F",
"8. c #B5A09D",
"9. c #9E94A9",
"0. c #8794A5",
"q. c #BB98A3",
"w. c #A29AB0",
"e. c #BAA5A3",
"r. c #BDA9A5",
"t. c #CC829C",
"y. c #C1979D",
"u. c #C29A9F",
"i. c #D48AA5",
"p. c #D589A5",
"a. c #DE94B0",
"s. c #E79AB9",
"d. c #C3A4AD",
"f. c #C1ADAA",
"g. c #C9A4A7",
"h. c #D1ABAE",
"j. c #C7B5AF",
"k. c #C5ABB1",
"l. c #CAAEB4",
"z. c #C6A7B0",
"x. c #CBB9B2",
"c. c #CDB7B8",
"v. c #D3B1B3",
"b. c #D2BFB9",
"n. c #DBBDBC",
"m. c #D7C4BD",
"M. c #9EABC3",
"N. c #96B2C6",
"B. c #A4ACC2",
"V. c #A6BED5",
"C. c #D1BBC2",
"Z. c #FAACCE",
"A. c #F2A5C2",
"S. c #FEAFD2",
"D. c #FFB2D4",
"F. c #AAC4DB",
"G. c #A9C1D8",
"H. c #A6CFE5",
"J. c #AACDE4",
"K. c #A9D4EC",
"L. c #ABDBF4",
"P. c #ACE6FE",
"I. c #AEE9FF",
"U. c #B1E8FF",
"Y. c #DDC6C2",
"T. c #DDCBC5",
"R. c #DAC8CF",
"E. c #DECFD4",
"W. c #DED0D6",
"Q. c #E1C5C3",
"!. c #E2C9C6",
"~. c #E5CDC9",
"^. c #E5D2CC",
"/. c #E9D3CE",
"(. c #EAD8CF",
"). c #EBD6D1",
"_. c #EDDBD4",
"`. c #E4D7DC",
"'. c #F1DED7",
"]. c #F1DED8",
"[. c #F2E2DA",
"{. c #EADEE1",
"}. c #EBE2E5",
"|. c #F1EBEF",
" X c #F7F5F5",
".X c #FFFFFF",
"XX c #FDFDFE",
"oX c #FDFDFD",
"OX c #F8F6F7",
/* pixels */
"                                                                                                                                ",
"                                                                                                                                ",
"                                                                                                                                ",
"                                                                                                                                ",
"                                                                                                                                ",
"                                                                                                                                ",
"                                                                                                                                ",
"                                                                                                                                ",
"                                                                                                                                ",
"                                                                                                                                ",
"                                                                                                                                ",
"                                                                                                                                ",
"                                                                                                                                ",
"                                                            $ X X X X X X X X X X $ >                                           ",
"                                      : s g g s , $ + X + % 1 4 q y i c c c y r 7 1 % + + o                                     ",
"                                      X.H.L.K.H.N.a 9 c P Q |  . . ......... . . .' M M 4.4.e + &                               ",
"                                      0.U.P.P.P.I.9.) .. . . . . . . . . . . . .' L q.{..X.Xk.q * X $                           ",
"                                  $ + a M.G.F.J.G.O.)  . . . . . . . . . . . . .I k..X.X.XOXq.) Q p % O                         ",
"                              % + % p K L T T R Y (  . . . . . . . . . . . . . .I c..X.X`.1.Z } .. .P < +                       ",
"                            $ O r T  ... . . . . . . . . . . . . . . . . . . . .) ( z.7.Y L }  . . ...Q 2 +                     ",
"                        $ + 2 P  ... . . . . . . . . . . . . . . . . . . . . . . .) ) ) }  . . . . . ...Q 2 +                   ",
"                      X O y ' .. . . ... . . . . . . . . . . . . . . . . . . . . . . . . . . . . . . . ...Q < O                 ",
"                    # % G  . . . . . . . . . . . . . . . . . . . . . . . . . . . . . . . . . . . . . . . . .G O $               ",
"                  & = K } | |  . . . . . . . . . . . . . . ......... . . . . . . . . . . . . . . . . . . . . .r +               ",
"                & 9 R ,.#.#.) L |  . . . . . . . . . ... . .' ' ' ' | .. . . . . . . . . . . . . . . .}  . ...Q % &             ",
"              & * R }.OXOX X}.;.) .. . . . . . . . . .' J z 0 0 0 0 z T  . . . . . . . . . . . . .{ L R R Y T ) y +             ",
"            & % M ;.OX.X.X.X.Xl./ .. . . . . . . . .K 0 5 0 h z z h 0 0 )  . . . . . . . . . . . .L w.K.J.V.B.o.V * &           ",
"            + c } L d.R.E.`.R.{ )  . . . . . . . .J 5 0 x v v v v v b 5 z  . . . . . . . . . . . .T F.I.P.P.I.G.E y +           ",
"          & 2 [  .' I T T ) T )  . . . . . . . .I 5 h v v v v v v v v h 0 ' .. . . . . . . . . . .I -.F.K.L.P.B.Y P O           ",
"          O G  . . . . . . . . . . . . . . . .| j 0 v v v v v v v v v h 0 '  . . . . . . . . . . .| I Y R o.o.E ) | < &         ",
"        & 2 [  . . . . . . . . . . . . . . . .' 0 h v v v v v v v v h - V  . . . . . . . . .} ) L ^ )  .| ] ] |  . .4 O         ",
"        + m  . . . . . . . . . . . . . . . . .' k h v v v v v v z 5 5 V |  . . . . . . . ./ n N ( L N /  . . . . ...r +         ",
"        & U .... . . . . . . . . . . . . . . . .J 0 5 0 w w 0 5 5 z I  . . . . . . . . .L N >.n./.^.<.n '  . . . ...i +         ",
"      X < |  .) / / ]  . . . . . . . . . . . . . .T V z h h j V I |  . . . ... . . . .) N y.].[.[.[.~.L Z  . . . ...m O         ",
"      X 2 | ) ( p.&.A )  . . . . . . . . . . . . ... . .| |  . ... . . . . . . . . . .C _ ).[.[.[.[.[.<.N |  . . ...F +         ",
"      + 2 | ( i.D.S.p.Z )  . . . . . . . . . . . . . . . . . . . . . . . . . . . . .} N y.[.[.[.[.[.[.n.N /  . . ...F +         ",
"      + 2  .( &.S.S.D.p.I  . . . . . . . . . . . ..... . . . . . . . . . .| ) ) ' @.{ N v.[.[.[.[.[.[._.>.n )  ...[ 6 $         ",
"      + 4  .} Z &.Z.D.a.I  . . . . . . . . . .' I T )  . . . . . . . .| I Z +.&.D ' ) A Q.[.[.[.[.[.[.[.!.{ n B b 2 O           ",
"      X 2 }  .} Z +.t.` /  . . . . . . . . .' L d.l.Y }  . . . . . . .L +.s.S.D.p.( / Z ~.[.[.[.[.[.[.[.[./.g.E +               ",
"      X < |  . .| ) ) ) }  . . . . . . . . .L d..X.X5.' .. . . . . .| ( A.D.S.D.t.( / Z ~.[.[.[.[.[.[.[.[.[.[.~ X               ",
"        % Q  . . ... .) C B L '  . . . . .} T }..XOX;.'  . . . . . . .( s.Z.s.*.A { ( Z ~.[.[.[.[.[.[.[.[.[.j.;                 ",
"        O P .. . . .I N _ $.Y N )  . . . .) 5..X.XW.L |  . . . . . . ./ ( +.S L ]  .T Z !.[.[.[.[.[.[.[.[.^.f X                 ",
"        + m .. . .{ N ,.).[.~.#.N }  . . .T C..X.X2.I  . . . .|  . . . .} ' |  . . .( Z ~.[.[.[.[.[.[.[.[.=.o                   ",
"        O 4  .....I Z !.[.[.[.Q.Z L  . .../ 1.|.C.A }  . .' C N C )  . . . . . . . .^ L /.[.[.[.[.[.[.[.e.>                     ",
"          & F U J n $._.[.[.[.[.<.n ] .. .} L { Y /  . . .C Y <._ n )  . . . . . . .B } '.[.[.[.[.[.[.f.3 X                     ",
"          o O O @ _ !.[.[.[.[.[.Q.Z L  . . . .| |  . ...' N g.[.(.$.N '  . . . .} L N h.[.[.[.[.[.[.r.3 X                       ",
"                X H ).[.[.[.[.[.[.y.l )  . . . . . . ...) B Q.[.[.^._ N ) | } ) B N y.].[.[.[.[._.3.; X                         ",
"                  O :.].[.[.[.[.[.(.} N }  . . . . . .../ Z !.[.[.[.Y.} N N N B } v.].[.[.[.[.T.! & X                           ",
"                  O % 3.[.[.[.[.[.[.Y.Y N }  . . . . . .L L ^.[.[.[.[.(.h.y.g.n._.[.[.[.[._.r.t X                               ",
"                    o ; 3._.[.[.[.[.[.n.( N ) |  ..... .B #._.[.[.[.[.[.[.[.[.[.[.[.[.].x.W % X                                 ",
"                      O & ! Y.[.[.[.[.[.!.@.N N ^ ) ' Z N h.[.[.[.[.[.[.[.[.[.[.[._.x.W < X                                     ",
"                          X 7 3.^.[.[.[.[._.v.#.Z N N Z u.].[.[.[.[.[.[.[.[.[.T.6.H : X                                         ",
"                            X & u :.b.).[.[.[.].~.n.n.!.[.[.[.[.[.[.[.(.m.8.W 8 O X                                             ",
"                                X X : d =.6.x.Y.^.).).).(.^.T.b.f.3.! u 1 O X                                                   ",
"                                      X X # % 3 7 t u u u e 3 ; & X . .                                                         ",
"                                                                                                                                ",
"                                                                                                                                ",
"                                                                                                                                ",
"                                                                                                                                ",
"                                                                                                                                ",
"                                                                                                                                ",
"                                                                                                                                ",
"                                                                                                                                ",
"                                                                                                                                "
};
