/* XPM */
static char *b1e7ccdf5eef4fb5c062f3a7228d7efaWxezV8Xgyzt3w5rr[] = {
/* columns rows colors chars-per-pixel */
"64 64 238 2 ",
"   c None",
".  c #4E4DCF",
"X  c #514FCC",
"o  c #5253CE",
"O  c #5259CE",
"+  c #5A5ACD",
"@  c #5852CB",
"#  c #4F4ED0",
"$  c #504FD1",
"%  c #5353D1",
"&  c #5A55D1",
"*  c #575BD2",
"=  c #5B5BD3",
"-  c #4F56CE",
";  c #615ACD",
":  c #635BD3",
">  c #6C5BD3",
",  c #6755D2",
"<  c #7B5BD3",
"1  c #7658D3",
"2  c #5969CF",
"3  c #5764D2",
"4  c #587BD2",
"5  c #6166CC",
"6  c #6464D5",
"7  c #6B6CD9",
"8  c #6868D5",
"9  c #7667D6",
"0  c #6778D6",
"q  c #7676DB",
"w  c #7261CB",
"e  c #7E7EE1",
"r  c #925ACF",
"t  c #8B56D3",
"y  c #835CD4",
"u  c #8559D4",
"i  c #9255D3",
"p  c #945CD5",
"a  c #9B58D2",
"s  c #A35BD4",
"d  c #A95DD6",
"f  c #8865D7",
"g  c #9465D6",
"h  c #9966DA",
"j  c #9668D8",
"k  c #8879D8",
"l  c #9C74DB",
"z  c #9478DC",
"x  c #A968D9",
"c  c #B364DA",
"v  c #BB6ADD",
"b  c #B966DE",
"n  c #A677DD",
"m  c #B374DD",
"M  c #837BE1",
"N  c #957EE5",
"B  c #AC6AE0",
"V  c #B76DE1",
"C  c #AA76E1",
"Z  c #BD72E3",
"A  c #BA78E3",
"S  c #C474DE",
"D  c #C26EE3",
"F  c #C472E4",
"G  c #CA78E9",
"H  c #D57EED",
"J  c #5E97D1",
"K  c #5886D2",
"L  c #6783D5",
"P  c #7C87DA",
"I  c #6B95D9",
"U  c #769ADB",
"Y  c #74A4D9",
"T  c #6BB8D6",
"R  c #73B5D8",
"E  c #64A8D3",
"W  c #7B9EE3",
"Q  c #7D89E0",
"!  c #5DB4FB",
"~  c #69B8FA",
"^  c #77B3E9",
"/  c #6FC5D7",
"(  c #73CAD9",
")  c #76C4DA",
"_  c #6DC6FB",
"`  c #7CCBFA",
"'  c #78C6F9",
"]  c #7BD3FB",
"[  c #7BDDFC",
"{  c #76D2FC",
"}  c #7DC4EF",
"|  c #858BDD",
" . c #968ADA",
".. c #859ADE",
"X. c #9399DD",
"o. c #A491DE",
"O. c #9AA3DE",
"+. c #83B7DB",
"@. c #94BADE",
"#. c #8887E3",
"$. c #918CE7",
"%. c #9B95EA",
"&. c #9A96E7",
"*. c #849CE2",
"=. c #A789E4",
"-. c #A49DED",
";. c #AB95E5",
":. c #B69BEB",
">. c #BB90EB",
",. c #8BA7E4",
"<. c #94ABE9",
"1. c #89B6E5",
"2. c #98B9E9",
"3. c #97BBF4",
"4. c #AAA4EB",
"5. c #B8A8EA",
"6. c #A4BCEC",
"7. c #A9B6EA",
"8. c #ADA5F1",
"9. c #ACADF4",
"0. c #B5ABF5",
"q. c #BCA5FA",
"w. c #B3ACFA",
"e. c #BBABF8",
"r. c #A7BAF9",
"t. c #B6B6F8",
"y. c #B4B0ED",
"u. c #D297D8",
"i. c #D7A0DB",
"p. c #CA88EC",
"a. c #DB83EF",
"s. c #D586ED",
"d. c #C997EB",
"f. c #D889F1",
"g. c #CA97F3",
"h. c #C2A2F5",
"j. c #C5A3FB",
"k. c #CAA1FC",
"l. c #C6A9F9",
"z. c #CFA5E2",
"x. c #83C3DF",
"c. c #89CAEB",
"v. c #9BCBEA",
"b. c #98CBE5",
"n. c #8DDAE8",
"m. c #91D9E5",
"M. c #94D6E9",
"N. c #83CCFB",
"B. c #8BCAF8",
"V. c #99C8F8",
"C. c #83DCFC",
"Z. c #8BDDFC",
"A. c #88D3FB",
"S. c #94D3F4",
"D. c #9CD3FA",
"F. c #97DCFB",
"G. c #9BDCFA",
"H. c #97D7F6",
"J. c #A6C2EB",
"K. c #A8D8EE",
"L. c #A8C7F7",
"P. c #BBCCF5",
"I. c #B3C5FA",
"U. c #B4CDF9",
"Y. c #B8C6F6",
"T. c #A3DBFA",
"R. c #ACDCFA",
"E. c #A7D4F7",
"W. c #B4DDFB",
"Q. c #BBD7F9",
"!. c #BDD7ED",
"~. c #92E1E8",
"^. c #8CE5FC",
"/. c #86E3F9",
"(. c #94E4FC",
"). c #9AE5FA",
"_. c #96ECFD",
"`. c #9BEBFA",
"'. c #94E8F5",
"]. c #95F3FC",
"[. c #9BF2FB",
"{. c #99FAFA",
"}. c #97F7F9",
"|. c #8EE0E9",
" X c #ADE4FB",
".X c #A4EBFB",
"XX c #ACEBFB",
"oX c #A4E2FB",
"OX c #B4E5FB",
"+X c #BDE4FC",
"@X c #B3EDFA",
"#X c #BBECFC",
"$X c #BEECF7",
"%X c #A4F3FB",
"&X c #ABF3FC",
"*X c #A8FBFD",
"=X c #B4F3FB",
"-X c #BBF3FB",
";X c #B4FCFB",
":X c #BBFDFB",
">X c #A6E0E6",
",X c #F5DAD5",
"<X c #C3DBEE",
"1X c #C5CBF5",
"2X c #C3DBFA",
"3X c #CADDFA",
"4X c #C7D6F7",
"5X c #D4D9F6",
"6X c #D9D7ED",
"7X c #E7DBEE",
"8X c #C3E3FC",
"9X c #CBE3FA",
"0X c #C3EDFC",
"qX c #CCEDFB",
"wX c #D5E5F9",
"eX c #D3EBFB",
"rX c #DCEEFB",
"tX c #D7E5F6",
"yX c #C3FEF7",
"uX c #C4F2FB",
"iX c #CCF2FB",
"pX c #C3FDFB",
"aX c #CBFDFB",
"sX c #C9F9F7",
"dX c #DCFEF6",
"fX c #D4F3FC",
"gX c #DBF4FB",
"hX c #D4FDFB",
"jX c #DCFDFB",
"kX c #D3F9F7",
"lX c #FEF8E5",
"zX c #E4EBF7",
"xX c #E4FDFC",
"cX c #EAFDFC",
"vX c #E6F6F7",
"bX c #F2FAFA",
"nX c #F3ECEB",
"mX c #F4E4D7",
/* pixels */
"                                                                                                                                ",
"                                                                                                                                ",
"                                                                                                                                ",
"                                                        }.].].`.6.=.                                                            ",
"                                                      `.].].`.7.=.n l                                                           ",
"                                                    `._.].`.7.;.=.l h g                                                         ",
"                                                  T.)._.).J.4.=.n h h p p                                                       ",
"                                                  L.G.F.v.7.-.o.l j p p i r                                                     ",
"                                                t.I.E.M.v.2.O. .l g p i i i r                                                   ",
"                                              l.l.t.H.M.b.2.O.X. .g p i t i i a                                                 ",
"                                            l.k.e.K.~.m.b.@.2.R.).<.f t i i a s x                                               ",
"                                            k.j.L.~.~.m.b.b.V.T.).].2.f i a s d c v                                             ",
"                                          k.k.J.n.|.m.m.M.S.B.A.A.(.].2.g a d c v D S                                           ",
"                                        q.j.t.M.m.n.m.M.S.B.' ' ` ` ^._.3.x c v D F G                                           ",
"                                      0.q.0.J.b.v.b.M.} ~ ~ ~ ! ! ~ ' Z._.6.m V D F F F                                         ",
"                                      w.q.y.7.6.J.v.b.~ ! ! ! ! ! ! _ N.Z.(.7.Z F F Z Z B                                       ",
"                                    w.w.h.5.5.y.y.7.8XR.N.N.N.' ` _ _ _ ` Z.F.8.Z Z V x h g                                     ",
"                                  r.w.g.g.d.d.d.5.P.qXfX8XT.T.A.` ] _ _ _ { Z.V.;.V x h f 9 w                                   ",
"                                r.r.q.f.f.f.p.d.y.W.OX#XfXfX0XG.] ] C.{ { ] Z.D.r.C g f < > : ;                                 ",
"                                r.w.f.a.s.s.s.:.S.oX XOX0XqXfX#XoXF.Z.C.[ [ ^.R.I.8.f 1 > : * * +                               ",
"                              V.r.g.a.a.s.s.p.V.(. XOXOX#X0X0XiXfX0XXX(.^.^.^..XQ.t.=.> = * * * * 5                             ",
"                            D.V.0.a.H H H p.r.C.^..XXX#X#X#X#X#X0XuXuX-X%X[.].%XpXQ.q.N + O * * = 6                             ",
"                          G.F.L.p.H G G G 8.(.^._..X.X.X.X.X.X.X.X&X=X:X;X*X%X*XpXuXY.h.M * = 3 6 8 7                           ",
"                          (.F.:.G G F Z >.R.`.%X%X&X=X@XXX.X&X&X%X*X;X;X;X;X*X;X;XpX-X1Xq.M 3 6 7 7 q #.                        ",
"                        ).(.r.A Z V B n L.=X=X-X:X:XpXiXuX=X-XiXkXaXaX:X;X;X:X:X:XpXpX-XY.9.P 7 q q #.$.&.                      ",
"                      `._.F.=.B x h g 4.=X;X:XpXaXaXhXaXhXjXhXjXxXxXxXaXyXpXyX:X:XpXpXpX-XL.r.Q q #.$.%.-.y.                    ",
"                      _._.<.h g f y  .uXpXpXaXaXaXhXhXhXjXxXxXxXxXxXxXdXhXaXaXyXyXpXpXpXpX-XE.3.#.$.%.-.8.0.                    ",
"                    `._.H.k y < 1 9 !.hXhXhXhXhXhXjXjXxXxXxXcXxXxXxXxXdXhXhXhXaXpX:X=X&X&XpX-XG.3.$.%.4.8.0.t.                  ",
"                  [.]._.*.1 , , ; 7.jXxXxXxXjXjXdXjXhXhXhXhXjXxXxXxXjXdXdXjXaX&X`._.(.^./.[.aX-XF.<.%.-.8.0.e.                  ",
"                  ].].c.8 , & o P kXxXxXxXxXxXxXcXxXjXjXhXhXhXjXjXdXdXdXdXpX).C.A.C.C.Z.(._.*XpX=XV.&.%.-.-.8.                  ",
"                [.]._.I o o o 5 <XxXxXxXcXcXxXxXxXxXjXjXjXhXjXjXjXjXvXvXsX(.A.` ` ] [ [ ] A.Z.`.=XH.$.$.$.%.-.                  ",
"                [.].].I o o - q rXcXxXcXbXbXcXcXcXxXxXjXjXhXjXxXxXxXcXcXiXH.A.A.A.[ /.[ ] ' N.T.=Xc.e M #.#.$.                  ",
"                  ].]./.4 o % O | E.=XkXcXcXcXcXxXxXxXcXxXjXjXxXcXcXxXxXjX0XOXoX).)..X.XF.H.T.$X%XW 7 q q e e                   ",
"                  [.].].c.2 o o O W @XuXiXuXuXuXuXiXiXuXuX-XuXuX#X#X-X-X-XuXuX#X@X@X=X#XuX@X.X.Xc.8 6 8 7 7 q                   ",
"                    }.].].^ O o O 2 J.vXiX$X#XiX$XXX).).`..XXX.X).).`.).). XeX0X.XXXXX@XuX-X=XH.0 = = : 6 6 8                   ",
"                    [.]._.(.I O 3 3 L 5XbXgXvXvXgX@X.X.XXX-XiXuX@XXX-X@X). XrXiXOX+X#XOXOX#X@XY % & * * = =                     ",
"                      `._.(.S.L 2 4 4 Y tXeXeXeXfXuXW.Q.uXaX-XXXXX X8X+X X X8X8X+X8XOX+X8X0XH.2 @ % % % O +                     ",
"                        ).F.D.3.L K J J +.qXgXcXcXcXP.P.rXiX0X#X#X+X9X9XQ.Q.2X2X9XeXeXeXeX#XU o o o o % o                       ",
"                          D.L.r.<.I E E T M.jXcXcXgXtXtXzXtXqXiX+XQ.wXwX9X9X2X8X9XeXwX9X0XS.3 # % % % % @                       ",
"                            r.t.w.,.T T T / >XjXxX2XP.tXbXzXrXjX0XQ.9XrXqXOXR.E.E.9XrX2X.XI . $ % % % o                         ",
"                              e.q.q.1./ ( ( ( K.gX3XI.tXvX5X2XfX9X2X3XzXqX+X XG.H.R.R.oXc.O $ $ $ % % @                         ",
"                              e.j.j.0.x.( ( / ) <X5XI.4XwX3XL.2XQ.Q.3XzXcXcXxXgXiXiX-X'.0 # # # # $ o                           ",
"                                h.k.j.9.) ( ) R +.Y.I.I.U.9XU.3X3X2X3XwXjXgXeXgXxXxX;X^ o $ # . . #                             ",
"                                  h.j.j.2.) R R Y ..r.Y.Q.wX3X9X2X3XwXQ.eX8XV.+XfX:Xn.3 . . . . . X                             ",
"                                    j.j.e.1.R Y U P X.Y.wXzXtXrX2X3X4XU.rX9XV.W.-X[.L $ # # . . X                               ",
"                                      e.w.r.,.U P P k o.1XzXvXzX3X4XY.4XrX2XV.T.[.^ % $ # # . .                                 ",
"                                        t.r.3...P k z l ;.nXlXnX3X4X4X5X3XU.8X%Xc.3 % $ $ $ # X                                 ",
"                                          L.D.3.| z l n m z.nXlXnX7X6X5XU.L.@X'.0 @ o % $ # o                                   ",
"                                            F.F.<.z n m A Z i.,XmXQ.L.1XV.A.].U & @ o % % o                                     ",
"                                              (.(.&.m A Z F S i.,XE.B.5XD.].1., & % o o o                                       ",
"                                              )._.F.;.Z F F F S u.7XE.U.`.c.8 , & % % % @                                       ",
"                                                `.].E.>.F F D v c u.6X@XM.q , , & % & +                                         ",
"                                                  [.].L.A D V c d s n 2.k 1 > : = = =                                           ",
"                                                    }.].6.Z b c d a i t < 1 > > : 6                                             ",
"                                                      }.].6.m d s i t u < < 1 9 9 9                                             ",
"                                                        }.}.6.x a i t u y < 9 9 9                                               ",
"                                                          {.{.v.j i t u y y f f                                                 ",
"                                                              {.S.k t u y f f                                                   ",
"                                                                {.'.X.f f f                                                     ",
"                                                                  {.[.,.                                                        ",
"                                                                                                                                ",
"                                                                                                                                ",
"                                                                                                                                ",
"                                                                                                                                "
};
