/* XPM */
static char *result[] = {
/* columns rows colors chars-per-pixel */
"64 64 147 2 ",
"   c #2C2414",
".  c #2E2817",
"X  c #2C2518",
"o  c #30281A",
"O  c #3E3524",
"+  c #3B322B",
"@  c #423827",
"#  c #453C2E",
"$  c #4B3D2D",
"%  c #403332",
"&  c #453D32",
"*  c #4C3E33",
"=  c #453B38",
"-  c #4A3E3B",
";  c #523D33",
":  c #563F38",
">  c #4D4233",
",  c #4D433A",
"<  c #4F4A3F",
"1  c #524535",
"2  c #584737",
"3  c #554835",
"4  c #584837",
"5  c #54443C",
"6  c #55493A",
"7  c #5B4C3D",
"8  c #5E523D",
"9  c #604E3E",
"0  c #61533E",
"q  c #71623F",
"w  c #4D4442",
"e  c #554544",
"r  c #584740",
"t  c #544B44",
"y  c #5C4D42",
"u  c #544948",
"i  c #5B4D4B",
"p  c #5D5144",
"a  c #5C534A",
"s  c #5C5351",
"d  c #614D44",
"f  c #624E49",
"g  c #635344",
"h  c #685647",
"j  c #655945",
"k  c #695B47",
"l  c #64544C",
"z  c #6A574B",
"x  c #65594A",
"c  c #6B5C4B",
"v  c #705F4B",
"b  c #615552",
"n  c #645A53",
"m  c #6C5C53",
"M  c #635E5D",
"N  c #6F5E5A",
"B  c #715F53",
"V  c #715E5F",
"C  c #6D614E",
"Z  c #726244",
"A  c #72624C",
"S  c #6C6255",
"D  c #6E635A",
"F  c #6E6C5C",
"G  c #736353",
"H  c #796755",
"J  c #74655A",
"K  c #78675E",
"L  c #74695C",
"P  c #7C6B5C",
"I  c #7F705D",
"U  c #6D6960",
"Y  c #736260",
"T  c #796663",
"R  c #736C63",
"E  c #7D6D62",
"W  c #746C6A",
"Q  c #7B6E6A",
"!  c #7F7262",
"~  c #7C756C",
"^  c #797671",
"/  c #806A57",
"(  c #816F5E",
")  c #8C795E",
"_  c #816E64",
"`  c #816E69",
"'  c #837364",
"]  c #897667",
"[  c #877867",
"{  c #8B7A61",
"}  c #84736A",
"|  c #89776D",
" . c #847A6D",
".. c #8B7B6B",
"X. c #917E6D",
"o. c #877771",
"O. c #857A71",
"+. c #8C7B73",
"@. c #867B79",
"#. c #927E73",
"$. c #95826F",
"%. c #8E8275",
"&. c #8E837C",
"*. c #948373",
"=. c #988473",
"-. c #94847B",
";. c #99847B",
":. c #97897B",
">. c #9C8B7C",
",. c #A28875",
"<. c #A09B7F",
"1. c #918783",
"2. c #978D83",
"3. c #9E8E87",
"4. c #978B88",
"5. c #9B8E8A",
"6. c #9E9484",
"7. c #9D918B",
"8. c #A38F83",
"9. c #A39383",
"0. c #AC9786",
"q. c #A39985",
"w. c #A2958B",
"e. c #AC968D",
"r. c #A59A8D",
"t. c #AD9D8E",
"y. c #A59392",
"u. c #A69C92",
"i. c #A99D93",
"p. c #A2999A",
"a. c #AEA192",
"s. c #B2A294",
"d. c #B3A39B",
"f. c #BBAB9E",
"g. c #B2A6A5",
"h. c #B5A9A7",
"j. c #BEADA4",
"k. c #BCB1AF",
"l. c #BDB2B0",
"z. c #C0AFA3",
"x. c #C1B1A5",
"c. c #C3B5AC",
"v. c #C9B8AF",
"b. c #CCBBB3",
"n. c #CFC2BA",
"m. c #D1C2BA",
"M. c None",
/* pixels */
"M.M.M.M.M.M.M.M.M.M.M.M.M.M.M.M.M.M.M.M.M.M.M.M.M.M.M.M.M.M.M.M.M.M.M.M.M.M.M.M.M.M.M.M.M.M.M.M.M.M.M.M.M.M.M.M.M.M.M.M.M.M.M.M.",
"M.M.M.M.M.M.M.M.M.M.M.M.M.M.M.M.M.M.M.M.M.M.M.M.M.M.M.M.M.M.M.M.M.M.M.M.M.M.M.M.M.M.M.M.M.M.M.M.M.M.M.M.M.M.M.M.M.M.M.M.M.M.M.M.",
"M.M.M.M.M.M.M.M.M.M.M.M.M.M.M.M.M.M.M.M.M.M.M.M.M.M.M.M.M.M.M.M.M.M.M.M.M.M.M.M.M.M.M.M.M.M.M.M.M.M.M.M.M.M.M.M.M.M.M.M.M.M.M.M.",
"M.M.M.M.M.M.M.M.M.M.M.M.M.M.M.M.M.M.M.M.M.M.M.M.M.M.M.M.M.M.M.M.M.M.M.M.M.M.M.M.M.M.M.M.M.M.M.M.M.M.M.M.M.M.M.M.M.M.M.M.M.M.M.M.",
"M.M.M.M.M.M.M.M.M.M.M.M.M.M.M.M.M.M.M.M.M.M.M.M.M.M.M.M.M.M.M.M.M.M.M.M.M.M.M.M.w s M.M.M.M.M.M.M.M.M.M.M.M.M.M.M.M.M.M.M.M.M.M.",
"M.M.M.M.M.M.M.M.M.M.M.M.M.M.M.M.M.M.U M.M.M.M.M.M.M.M.M.M.M.M.M.M.M.M.M.M.M.M.= u s M.M.M.M.M.M.M.M.M.M.M.M.M.M.M.M.M.M.M.M.M.M.",
"M.M.M.M.M.M.M.M.M.M.M.M.M.M.M.M.M.M.^ ^ M.M.M.M.M.M.M.M.M.M.M.M.M.M.M.M.M.t u i i a M.M.M.M.M.M.M.M.M.M.M.M.M.M.M.M.M.M.M.M.M.M.",
"M.M.M.M.M.M.M.M.M.M.M.M.M.M.M.M.M.M.U ^ R U a w w b @.g.l.l.h.7.o.K n y 5 t p 7 7 e M.M.M.M.M.M.M.M.M.M.M.M.M.M.M.M.M.M.M.M.M.M.",
"M.M.M.M.M.M.M.M.M.M.M.M.M.M.M.M.M.M.M.~ R L S S n R 7.c.m.n.c.d.-.} L m g a p 7 7 - M.M.M.M.M.M.M.M.M.M.M.M.M.M.M.M.M.M.M.M.M.M.",
"M.M.M.M.M.M.M.M.M.M.M.M.M.M.M.M.M.M.M.@.~ L C j x J r.v.b.b.j.s...} ( H g g 0 0 9 M.M.M.M.M.M.M.M.M.M.M.M.M.M.M.M.M.M.M.M.M.M.M.",
"M.M.M.M.M.M.M.M.M.M.M.M.M.M.M.M.M.M.M.W Q L c p 8 y :.c.b.b.j.w.G 9 g h c h g 0 9 M.M.M.M.M.M.M.M.M.M.M.M.M.M.M.M.M.M.M.M.M.M.M.",
"M.M.M.M.M.M.M.M.M.M.M.M.M.M.M.M.M.M.M.M.E S j 3 1 $ L j.j.f.d.*.h $ $ 4 c G g g 7 M.M.M.M.M.M.M.M.M.M.M.M.M.M.M.M.M.M.M.M.M.M.M.",
"M.M.M.M.M.M.M.M.M.M.M.M.M.M.M.M.M.M.M.M.R S Z 3 1 3 L s.s.s.t.*.H g 2 9 G J c h 7 M.M.M.M.M.M.M.M.M.M.M.M.M.M.M.M.M.M.M.M.M.M.M.",
"M.M.M.M.M.M.M.M.M.M.M.M.M.M.M.M.M.M.M.M.S x C A ( :.>.>.*.*.*.>.;.*.X.] [ ( B c c M.M.M.M.M.M.M.M.M.M.M.M.M.M.M.M.M.M.M.M.M.M.M.",
"M.M.M.M.M.M.M.M.M.M.M.M.M.M.M.M.M.M.M.M.l x H *.s.a.a.>.J H [ ;.<.8.,.>.$.[ K G _ M.M.M.M.M.M.M.M.M.M.M.M.M.M.M.M.M.M.M.M.M.M.M.",
"M.M.M.M.M.M.M.M.M.M.M.M.M.M.M.M.M.M.M.M.l S $.>.t.t.9.$.A g G [ X.>.9.:.=.X.[ ( P M.M.M.M.M.M.M.M.M.M.M.M.M.M.M.M.M.M.M.M.M.M.M.",
"M.M.M.M.M.M.M.M.M.M.M.M.M.M.M.M.M.M.M.M.D ' *.>.9.>.*.! c g g G ( [ ..[ $.$...[ E M.M.M.M.M.M.M.M.M.M.M.M.M.M.M.M.M.M.M.M.M.M.M.",
"M.M.M.M.M.M.M.M.M.M.M.M.M.M.M.M.M.M.M.M.J } *.:.*.*.[ P c c g c c G _ { { ..%.%._ M.M.M.M.M.M.M.M.M.M.M.M.M.M.M.M.M.M.M.M.M.M.M.",
"M.M.M.M.M.M.M.M.M.M.M.M.M.M.M.M.M.M.M.M.M.+.%.*.[ [ ' J G J G C G G J I [ ..*.*._ M.M.M.M.M.M.M.M.M.M.M.M.M.M.M.M.M.M.M.M.M.M.M.",
"M.M.M.M.M.M.M.M.M.M.M.M.M.M.M.M.M.M.M.M.M.} %.....[ ' ' I J G c G B P ! I { ...._ M.M.M.M.M.M.M.M.M.M.M.M.M.M.M.M.M.M.M.M.M.M.M.",
"M.M.M.M.M.M.M.M.M.M.M.M.M.M.M.M.M.M.M.M.M.} +.%.....' P P P G c v G P P ( ( ) I B M.M.M.M.M.M.M.M.M.M.M.M.M.M.M.M.M.M.M.M.M.M.M.",
"M.M.M.M.M.M.M.M.M.M.M.M.2.M.M.M.M.M.M.M.M.O.+.X...} ' E P K G c B G P H H P P F h M.M.M.M.M.M.M.M.M.M.M.M.M.M.M.M.M.M.M.M.M.M.M.",
"M.M.M.M.M.M.M.M.M.M.2.r.q.q.q.2.1.M.M.M.M.` } ....E ' P P J G B G G G H H G G x y * M.M.M.M.M.M.M.M.M.M.M.M.M.M.M.M.M.M.M.M.M.M.",
"M.M.M.M.M.M.M.M.M.M.O. .) ) { .. .} } E N T E ] ....[ } ` E K G G G G G G S c p 1 > , - M.M.M.M.M.M.M.M.M.M.M.M.y.p.i.5.M.M.M.M.",
"M.M.M.M.M.M.M.M.M.M.M.c Z q Z A G ' ! [ E G B P } ..[ +.o.} _ P H H G G A C 8 6 1 @ 5 > a i V Q V T R } &.6.8.8.;.#.&.1.M.M.M.M.",
"M.M.M.M.M.M.M.M.M.M.M.M.0 C A Z A / P P c g c G ' [ ..+.| } _ E J G A C k p 6 1 @ > > , < i x S T } ~  . .} T B v V D n M.M.M.M.",
"M.M.M.M.M.M.M.M.M.M.M.M.M.M.G G G G z d r 7 g G ( [ ] o.o.| } ' I J G k p 7 6 1 > $ > > > , i a m S V N D J m h f 5 - M.M.M.M.M.",
"M.M.M.M.M.M.M.M.M.M.M.M.M.M.M.M.T z ; ; ; 5 f B E } } +.+.o.o.} ! ! G c g 7 6 1 > $ @ O O > , p s a b s b i i e % M.M.M.M.M.M.M.",
"M.M.M.M.M.M.M.M.M.M.M.M.M.M.M.M.M.5 : ; ; 5 d m P ' | +.+.+.+.| [ ( J B j 8 7 6 , > @ . . + < t a y i e M.M.M.M.M.M.M.M.M.M.M.M.",
"M.M.M.M.M.M.M.M.M.M.M.M.M.M.M.M.M.M.M.- - 5 r z J T } +.+.+.+.o.' ( G c a 8 7 7 3 3 O . . & - M.M.M.M.M.M.M.M.M.M.M.M.M.M.M.M.M.",
"M.M.M.M.M.M.M.M.M.M.M.M.M.M.M.M.M.M.M.M., 5 g b m Y } +.+.+.+.o.[ P J C g p 7 6 3 > > & + M.M.M.M.M.M.M.M.M.M.M.M.M.M.M.M.M.M.M.",
"M.M.M.M.M.M.M.M.M.M.M.M.M.M.M.M.M.M.M.M.M.y g l l J ` +.+.+.#.o.' ! P G x 8 6 3 3 > , & M.M.M.M.M.M.M.M.M.M.M.M.M.M.M.M.M.M.M.M.",
"M.M.M.M.M.M.M.M.M.M.M.M.M.M.M.M.M.M.M.M.M.s i l n Y o.+.+.+.o.o.} ` E T B 7 1 1 $ 2 @ M.M.M.M.M.M.M.M.M.M.M.M.M.M.M.M.M.M.M.M.M.",
"M.M.M.M.M.M.M.M.M.M.M.M.M.M.M.M.M.M.M.M.M.M.a l B E o.+.+.+.o.} } E ` T J d 2 1 ; ; M.M.M.M.M.M.M.M.M.M.M.M.M.M.M.M.M.M.M.M.M.M.",
"M.M.M.M.M.M.M.M.M.M.M.M.M.M.M.M.M.M.M.M.M.M.a z m ` #.+.+.o.} } E E E E K z r 2 5 M.M.M.M.M.M.M.M.M.M.M.M.M.M.M.M.M.M.M.M.M.M.M.",
"M.M.M.M.M.M.M.M.M.M.M.M.M.M.M.M.M.M.M.M.M.M.5 l B } #.+.#.| } } } Q ` _ K N l f M.M.M.M.M.M.M.M.M.M.M.M.M.M.M.M.M.M.M.M.M.M.M.M.",
"M.M.M.M.M.M.M.M.M.M.M.M.M.M.M.M.M.M.M.M.M.M.t x z / ......} } ` ` } ' ' P N l l M.M.M.M.M.M.M.M.M.M.M.M.M.M.M.M.M.M.M.M.M.M.M.M.",
"M.M.M.M.M.M.M.M.M.M.M.M.M.M.M.M.M.M.M.M.M.M., i d H } ..] } } ` } } _ _ P N l l M.M.M.M.M.M.M.M.M.M.M.M.M.M.M.M.M.M.M.M.M.M.M.M.",
"M.M.M.M.M.M.M.M.M.M.M.M.M.M.M.M.M.M.M.M.M.M.u a h v ' [ ] | } } } } ' ' P G h l M.M.M.M.M.M.M.M.M.M.M.M.M.M.M.M.M.M.M.M.M.M.M.M.",
"M.M.M.M.M.M.M.M.M.M.M.M.M.M.M.M.M.M.M.M.M.M.M.l g v P ..] } ` _ } _ E ' H G c y M.M.M.M.M.M.M.M.M.M.M.M.M.M.M.M.M.M.M.M.M.M.M.M.",
"M.M.M.M.M.M.M.M.M.M.M.M.M.M.M.M.M.M.M.M.M.M.M.l l k I ....} _ ` ` _ _ P H A c g M.M.M.M.M.M.M.M.M.M.M.M.M.M.M.M.M.M.M.M.M.M.M.M.",
"M.M.M.M.M.M.M.M.M.M.M.M.M.M.M.M.M.M.M.M.M.M.M.l j C _ [ [ } ' ' _ _ P P G v c g M.M.M.M.M.M.M.M.M.M.M.M.M.M.M.M.M.M.M.M.M.M.M.M.",
"M.M.M.M.M.M.M.M.M.M.M.M.M.M.M.M.M.M.M.M.M.M.M.i S c P } [ } [ ( P P K H A k h d 5 M.M.M.M.M.M.M.M.M.M.M.M.M.M.M.M.M.M.M.M.M.M.M.",
"M.M.M.M.M.M.M.M.M.M.M.M.M.M.M.M.M.M.M.M.M.M.M.M.n j J I ' [ ' ' _ K G v k 0 9 7 7 M.M.M.M.M.M.M.M.M.M.M.M.M.M.M.M.M.M.M.M.M.M.M.",
"M.M.M.M.M.M.M.M.M.M.M.M.M.M.M.M.M.M.M.M.M.M.M.M.s c G P _ ] ' _ P J v h 0 0 9 7 7 t M.M.M.M.M.M.M.M.M.M.M.M.M.M.M.M.M.M.M.M.M.M.",
"M.M.M.M.M.M.M.M.M.M.M.M.M.M.M.M.M.M.M.M.M.M.M.M.b S S G P _ ] ] P G k g 8 7 9 7 7 6 M.M.M.M.M.M.M.M.M.M.M.M.M.M.M.M.M.M.M.M.M.M.",
"M.M.M.M.M.M.M.M.M.M.M.M.M.M.M.M.M.M.M.M.M.M.M.M.M.m c G P ' ] ] ( G g d 7 7 4 7 4 2 r M.M.M.M.M.M.M.M.M.M.M.M.M.M.M.M.M.M.M.M.M.",
"M.M.M.M.M.M.M.M.M.M.M.M.M.M.M.M.M.M.M.M.M.M.M.M.M.N J A K _ ] ] ' H v c c h 0 0 8 g y M.M.M.M.M.M.M.M.M.M.M.M.M.M.M.M.M.M.M.M.M.",
"M.M.M.M.M.M.M.M.M.M.M.M.M.M.M.M.M.M.M.M.M.M.M.M.M.Y R P P _ [ X...{ ( P H J G v h g d r M.M.M.M.M.M.M.M.M.M.M.M.M.M.M.M.M.M.M.M.",
"M.M.M.M.M.M.M.M.M.M.M.M.M.M.M.M.M.M.M.M.M.M.M.M.M.M.+.' ' [ ] #.+.X.[ [ { [ } ' P H G m M.M.M.M.M.M.M.M.M.M.M.M.M.M.M.M.M.M.M.M.",
"M.M.M.M.M.M.M.M.M.M.M.M.M.M.M.M.M.M.M.M.M.M.M.M.M.M.W } [ ..X.$.*.*.%.$.#.| *...X.} _ ' T M.M.M.M.M.M.M.M.M.M.M.M.M.M.M.M.M.M.M.",
"M.M.M.M.M.M.M.M.M.M.M.M.M.M.M.M.M.M.M.M.M.M.M.M.M.M.M.+.*.X.$.$.*.=.>.*.M.M.M.M.| #.X.X.*.M.M.M.M.M.M.M.M.M.M.M.M.M.M.M.M.M.M.M.",
"M.M.M.M.M.M.M.M.M.M.M.M.M.M.M.M.M.M.M.M.M.M.M.M.M.M.M.} %.*.$.$.*.>.2.M.M.M.M.M.M.| =.,.8.8.M.M.M.M.M.M.M.M.M.M.M.M.M.M.M.M.M.M.",
"M.M.M.M.M.M.M.M.M.M.M.M.M.M.M.M.M.M.M.M.M.M.M.M.M.M.M.-.>.*.=.=.;.M.M.M.M.M.M.M.M.M.#.>.>.w.M.M.M.M.M.M.M.M.M.M.M.M.M.M.M.M.M.M.",
"M.M.M.M.M.M.M.M.M.M.M.M.M.M.M.M.M.M.M.M.M.M.M.M.M.M.M.M.t.=.>.#.M.M.M.M.M.M.M.M.M.M.M.-.6.q.6.M.M.M.M.M.M.M.M.M.M.M.M.M.M.M.M.M.",
"M.M.M.M.M.M.M.M.M.M.M.M.M.M.M.M.M.M.M.M.M.M.M.M.M.M.M.M.i.0.M.M.M.M.M.M.M.M.M.M.M.M.M.M.q.q.q.M.M.M.M.M.M.M.M.M.M.M.M.M.M.M.M.M.",
"M.M.M.M.M.M.M.M.M.M.M.M.M.M.M.M.M.M.M.M.M.M.M.M.M.M.M.M.d.e.M.M.M.M.M.M.M.M.M.M.M.M.M.M.r.r.a.2.M.M.M.M.M.M.M.M.M.M.M.M.M.M.M.M.",
"M.M.M.M.M.M.M.M.M.M.M.M.M.M.M.M.M.M.M.M.M.M.M.M.M.M.M.M.h.M.M.M.M.M.M.M.M.M.M.M.M.M.M.M.M.w.w.u.M.M.M.M.M.M.M.M.M.M.M.M.M.M.M.M.",
"M.M.M.M.M.M.M.M.M.M.M.M.M.M.M.M.M.M.M.M.M.M.M.M.M.M.M.M.p.M.M.M.M.M.M.M.M.M.M.M.M.M.M.M.M.M.w.i.M.M.M.M.M.M.M.M.M.M.M.M.M.M.M.M.",
"M.M.M.M.M.M.M.M.M.M.M.M.M.M.M.M.M.M.M.M.M.M.M.M.M.M.M.M.M.M.M.M.M.M.M.M.M.M.M.M.M.M.M.M.M.M.M.M.M.M.M.M.M.M.M.M.M.M.M.M.M.M.M.M.",
"M.M.M.M.M.M.M.M.M.M.M.M.M.M.M.M.M.M.M.M.M.M.M.M.M.M.M.M.M.M.M.M.M.M.M.M.M.M.M.M.M.M.M.M.M.M.M.M.M.M.M.M.M.M.M.M.M.M.M.M.M.M.M.M.",
"M.M.M.M.M.M.M.M.M.M.M.M.M.M.M.M.M.M.M.M.M.M.M.M.M.M.M.M.M.M.M.M.M.M.M.M.M.M.M.M.M.M.M.M.M.M.M.M.M.M.M.M.M.M.M.M.M.M.M.M.M.M.M.M.",
"M.M.M.M.M.M.M.M.M.M.M.M.M.M.M.M.M.M.M.M.M.M.M.M.M.M.M.M.M.M.M.M.M.M.M.M.M.M.M.M.M.M.M.M.M.M.M.M.M.M.M.M.M.M.M.M.M.M.M.M.M.M.M.M.",
"M.M.M.M.M.M.M.M.M.M.M.M.M.M.M.M.M.M.M.M.M.M.M.M.M.M.M.M.M.M.M.M.M.M.M.M.M.M.M.M.M.M.M.M.M.M.M.M.M.M.M.M.M.M.M.M.M.M.M.M.M.M.M.M."
};
