/* XPM */
static char *result[] = {
/* columns rows colors chars-per-pixel */
"64 64 190 2 ",
"   c #020202",
".  c #090907",
"X  c #050609",
"o  c #08060A",
"O  c #070909",
"+  c #0B0B0C",
"@  c #080707",
"#  c #120C0D",
"$  c #11100F",
"%  c #0D0E11",
"&  c #050B10",
"*  c #100F12",
"=  c #0C1113",
"-  c #0F1318",
";  c #121213",
":  c #131619",
">  c #19171A",
",  c #14191B",
"<  c #1C1B1D",
"1  c #191717",
"2  c #211E1E",
"3  c #1C1D21",
"4  c #151D21",
"5  c #211F23",
"6  c #1B2125",
"7  c #1D262A",
"8  c #1C2628",
"9  c #232125",
"0  c #252529",
"q  c #29262B",
"w  c #22292B",
"e  c #2C2A2D",
"r  c #322F2F",
"t  c #252E32",
"y  c #2E2C31",
"u  c #312F34",
"i  c #293337",
"p  c #2E3A3D",
"a  c #283135",
"s  c #333135",
"d  c #35333A",
"f  c #39363C",
"g  c #3B393D",
"h  c #303B3E",
"j  c #481E21",
"k  c #423B3E",
"l  c #5A393F",
"z  c #55292E",
"x  c #43403E",
"c  c #333B42",
"v  c #3E3B42",
"b  c #2F3B42",
"n  c #403D44",
"m  c #4D3D43",
"M  c #5A3E43",
"N  c #6C3F42",
"B  c #354144",
"V  c #3C4A4D",
"C  c #384449",
"Z  c #3E4D52",
"A  c #444144",
"S  c #4D4A4A",
"D  c #4A4646",
"F  c #524E4E",
"G  c #5D4948",
"H  c #424F52",
"J  c #4C4E50",
"K  c #415154",
"L  c #4C5A5D",
"P  c #47575C",
"I  c #555354",
"U  c #5D595A",
"Y  c #6A4248",
"T  c #7B454C",
"R  c #734449",
"E  c #7F4950",
"W  c #645F5E",
"Q  c #4B5D61",
"!  c #54656C",
"~  c #55696D",
"^  c #5A6E74",
"/  c #566A72",
"(  c #5E7379",
")  c #4E6167",
"_  c #6A6869",
"`  c #746F70",
"'  c #61787D",
"]  c #797576",
"[  c #716E70",
"{  c #8D3E41",
"}  c #86494E",
"|  c #98494F",
" . c #AA4F53",
".. c #AA5154",
"X. c #B54C50",
"o. c #827D7E",
"O. c #D9575A",
"+. c #E85F5C",
"@. c #D95C61",
"#. c #E85D63",
"$. c #F05E61",
"%. c #DE6066",
"&. c #EB6063",
"*. c #F56365",
"=. c #FD6265",
"-. c #FE6669",
";. c #FF6A6D",
":. c #667D82",
">. c #697F86",
",. c #6C858B",
"<. c #6D8689",
"1. c #788789",
"2. c #6F8A90",
"3. c #728B93",
"4. c #779499",
"5. c #7A949C",
"6. c #7D99A1",
"7. c #8C8787",
"8. c #9F9999",
"9. c #9D9897",
"0. c #948E8F",
"q. c #A69F9F",
"w. c #829CA4",
"e. c #85A3AB",
"r. c #8AA6AB",
"t. c #8CAAB3",
"y. c #8EB0B7",
"u. c #93B4BC",
"i. c #95AFB7",
"p. c #ABA3A3",
"a. c #B3ACAC",
"s. c #BCB4B4",
"d. c #B4B3B3",
"f. c #C4BCBC",
"g. c #F7B3B3",
"h. c #C9C2BF",
"j. c #99BBC3",
"k. c #98BAC4",
"l. c #9EC3CD",
"z. c #A1C5CD",
"x. c #A5CAD4",
"c. c #ABCED7",
"v. c #AACFD9",
"b. c #A6CBD5",
"n. c #ABD2DC",
"m. c #B0D6DF",
"M. c #AFD7E1",
"N. c #B0D7E1",
"B. c #B2DAE4",
"V. c #B4DEE9",
"C. c #B6E1EC",
"Z. c #BAE3ED",
"A. c #BAE6F2",
"S. c #BCEAF5",
"D. c #BEEEFA",
"F. c #BFF2FE",
"G. c #CBC4C4",
"H. c #D3CBCC",
"J. c #D9CFCF",
"K. c #D0C7C7",
"L. c #DCD3D3",
"P. c #D7D6D9",
"I. c #FAC5C2",
"U. c #E1D7D7",
"Y. c #E5DDDC",
"T. c #E1D8D7",
"R. c #F2D2D4",
"E. c #EDDEE0",
"W. c #DFE0E8",
"Q. c #C2EBF6",
"!. c #C1EEFA",
"~. c #C2F2FF",
"^. c #C9F5FE",
"/. c #C6F8FF",
"(. c #CAFAFF",
"). c #D0FDFF",
"_. c #EBE3E3",
"`. c #E2E5EB",
"'. c #E4E9EF",
"]. c #F3E9E9",
"[. c #F4EAE9",
"{. c #EAEFF5",
"}. c #EBF0F6",
"|. c #EFF3FC",
" X c #FFF3F3",
".X c #FFF8F7",
"XX c #FFF6F9",
"oX c #FFFCFC",
"OX c #F4F9FF",
"+X c None",
/* pixels */
"+X+X+X+X+X+X+X+X+X+X+X+X+X+X+X+X+X+X  z.~.~.~.~.~.~.~.~.~.~.~.  +X+X+X+X+X+X+X+X+X+X+X+XX L /.F.~.~.~.,.  +X+X+X+X+X+X+X+X+X+X+X",
"+X+X+X+X+X+X+X+X+X+X+X+X+X+X+X+X+X+X+X, ^.~.~.~.~.~.~.~.~.~.~.  +X+X+X+X+X+X+X+X+X+X+X+X+X  e.~.~.~.~.~.2.  +X+X+X+X+X+X+X+X+X+X",
"+X+X+X+X+X+X+X+X+X+X+X+X+X+X+X+X+X+X+Xo ! /.~.~.~.~.~.~.~.~.D.  +X+X+X+X+X+X+X+X+X+X+X+X+X+X+ A.~.~.~.~.~.:.  +X+X+X+X+X+X+X+X+X",
"+X+X+X+X+X+X+X+X+X+X+X+X+X+X+X+X+X+X+X+X  6.~.~.~.~.~.~.~.~.!.  +X+X+X+X+X+X+X+X+X+X+X+X+X+X+Xt /.~.~.~.~.~.! X +X+X+X+X+X+X+X+X",
"+X+X+X+X+X+X+X+X+X+X+X+X+X+X+X+X+X+X+X+X+X  k./.~.~.~.~.~.~.~.  +X+X+X+X+X+X+X+X+X+X+X+X+X+X+X  3.!.~.~.~.~.~.V + +X+X+X+X+X+X+X",
"+X+X+X+X+X+X+X+X+X+X+X+X+X+X+X+X+X+X+X+X+X+X  t.~.~.~.~.~.~.D.  +X+X+X+X+X+X+X+X+X+X+X+X+X+X+X+XX Q.~.~.~.~.~./.w +X+X+X+X+X+X+X",
"+X+X+X+X+X+X+X+X+X+X+X+X+X+X+X+X+X+X+X+X+X+X+X  ( F.F.~.~.~.~.  +X+X+X+X+X+X+X+X+X+X+X+X+X+X+X+X+X, /.~.F.~.~.F.(.; +X+X+X+X+X+X",
"+X+X+X+X+X+X+X+X+X+X+X+X+X+X+X+X+X+X+X+X+X+X+X+X. 3 A.~.~.~.~.  +X+ + + +   X X + + = + = = % + +   4 >.n.F.~.~.~.Z.X +X+X+X+X+X",
"+X+X+X+X+X+X+X+X+X+X+X+X+X+X+X+X+X+X+X+X+X+X+X+X+X+X  6.!.^.~.i !.j.N.!.^././././.^.~.~.~././././.A.X z.~ 6 M.~.~.~.,.  +X+X+X+X",
"+X+X+X+X+X+X+X+X+X+X+X+X+X+X+X+X+X+X+X+X+X+X+X+XX   3.p = A.~.C.w.~.~.^.~.~.~.~.!.^.~.~.~.~.~.~.~.~.i.t F.F.~.~.~.~.~.p +X+X+X+X",
"+X+X+X+X+X+X+X+X+X+X+X+X+X+X+X+X+X+X+X+X+X  : 4.Z.~.~.~.v.  P F.& !.!.~.~.~.~.~.~.~.~.~.~.~.~.~.~.~.!.% N.~.~.~.~.~.~.!.X +X+X+X",
"+X+X+X+X+X+X+X+X+X+X+X+X+X+X+X+X+X+X.   <.S.~.~.~.~.~.~.~.F.e.X <.S.~.~.~.~.~.~.~.~.~.~.~.~.~.~.~.~.^.C.O ~.~.~.~.~.~.F.( O +X+X",
"+X+X+X+X+X+X+X+X+X+X+X+X+X+X+X+X+X  ,.F.~.~.~.~.~.~.~.~.~.~.~.D.V.^.~.~.~.~.~.~.~.~.~.~.~.~.~.~.~.~.~.!.K 4.F.~.~.~.~.~.(.+ +X+X",
"+X+X+X+X+X+X+X+X+X+X+X+X+X+X+X+ 6 Z.~.~.~.~.~.~.~.~.~.~.~.~.~.~.~.!.~.~.~.~.~.~.~.~.~.~.~.~.~.~.~.~.~.~.D.  !.~.~.~.~.~.~.,.  +X",
"+X+X+X+X+X+X+X+X+X+X+X+X+X+X  ! ~.~.~.~.~.~.~.~.~.~.~.~.~.~.~.~.~.~.~.~.~.~.~.~.~.~.~.~.~.~.~.~.~.~.~.~.~.4.Z ^.~.~.~.~.~.(.+ +X",
"+X+X+X+X+X+X+X+X+X+X+X+X+X  4./.~.~.~.~.~.~.~.~.~.~.~.~.~.~.F.~.~.~.~.~.~.~.~.~.~.~.~.~.~.~.~.~.~.~.~.~.~.!.X C.~.~.~.~.~.~.^ +X",
"+X+X+X+X+X+X+X+X+X+X+X+X  2.~.~.~.~.~.~.~.~.~.~.~.~.~.~.~.~.~.~.~.~.~.~.~.~.~.~.~.~.~.~.~.~.~.~.~.~.~.~.~.~.x.6 ~.~.~.~.~.~.C.  ",
"+X+X+X+X+X+X+X+X+X+X+X+ P ~.F.~.~.~.~.~.~.~.~.~.~.~.~.~.~.~.~.~.~.~.~.~.~.~.~.~.!.~.~.~.~.~.~.~.~.~.~.~.~.~.~.: v.~.~.~.~.~./.c ",
"+X+X+X+X+X+X+X+X+X+X+X% ^.~.~.~.~.~.~.~.~.~./.~.~.~.~.~.~.~.~.~.~.~.~.~.~.~.~.~.~.~.~.~.~.~.~.~.~.~.~.~.~.~.~.C.+ ~.~.~.~.~.~.t.",
"+X+X+X+X+X+X+X+X+X+X  V.~.~.~.~.~.~.~.!.~.  x.~.~.~.~.~.~.~.~.~.~.~.~.~.~.~.~.~.!.M./.~.~.~.~.~.~.~.~.~.~.~.~.~.i u.~.~.~.~.~.D.",
"+X+X+X+X+X+X+X+X+X+ :.~.~.~.~.~.~.~.~./.% e./.~.~.~.~.~.~.~.~.~.F.~.~.~.~.~.~.~.~.( b (./.~.~.~.~.~.~.~.~.~.~.~.!.X D.~.~.~.~.F.",
"+X+X+X+X+X+X+X+X+X+ /.~.~.~.~.~.~.~.(.w 3./.!.~.~.~.~.~.~.~.u.(.~.~.~.~.~.~.~.~.~.(.K L /.~.~.~.~.~.~.~.~.~.~.~.F.V w.~.~.~.~.~.",
"+X+X+X+X+X+X+X+XX u.~.!.~.~.~.~.~./.! P (.~.~.~.~.~.~./.v.C 2 = 3./.~.~.~.~.~.~.~.~.(.a 4.~.~.~.~.~.~.~.~.~.~.!.~./.X S.~.~.~.~.",
"+X+X+X+X+X+X+X+X, ~.~.~.~.~.~.~.~.t.3 /.~.~.~.~.F.~.!.~ $ p.oX_.W   3./.~.~.~.~.~.~.~.~.  n.F.~.~.~.~.~.~.~.~.~.~.!.P 4.~.~.~.~.",
"+X+X+X+X+X+X+XO n.~.~.~.~.~.~.F.~.  C.F.~.~.~.~./.j.  ] oX X X X XoXU   w./.~.F.~.~.~.!.z., /.~.~.~.~.~.~.~.~.~.~.~./.  !.~.~.~.",
"+X+X+X+X+X+X+X3 ~.~.~.~.~.~.!./.w t.~.~.~.~.~.D.( ; E. X X X X X X X XoXD = j./.~.~.~.~./.) ( ~.~.~.~.~.~.~.~.~.~.~.~.P 4.~.~.~.",
"+X+X+X+X+X+X  b.~.~.~.~.~.~.~.u.7 /.~.~.~.~.C.w W oX X X X X X X X X X X XU.5 Q A.~.~.~.~.!.  !.~.~.~.~.~.~.~.~.~.~.!.!.& ^.~.~.",
"+X+X+X+X+X+X, /.~.~.~.~.~.F.^.+ B.F.~.~./.b.  p. X X X X X X X X X X X XJ.J.oXo.  v.~.~.~.~.w.C ~.F.~.~.~.~.~.~.~.~.~.~.V e.~.~.",
"+X+X+X+X+XX t.~.~.~.~.~.~.~.,.~ /.~.~./.4.  [.J.P.XX X X X X X X X X Xa.= , g oXXX@ :./.~.~.(.  ~.~.~.~.~.~.~.~.~.~.~.~.x.w (.~.",
"+X+X+X+X+X; (.~.~.~.~.~.~.~.  A.~.~.F.P < oX` w = `  X X X X X X X XXXO Z.F.t J. XoXk h ~.~.~.t.p ~.~.~.~.~.~.~.~.~.~.~./.0 l.~.",
"+X+X+X+X+X( ~.~.~.~.~.~.~.3./ ^.!.~.B D oXoXr N.c.1 oX X X X X X X X Xr     r oX X X X7.= /.~.!.  /.~.~.~.~.~.~.~.~.~.~.~.e.H ~.",
"+X+X+X+X+ ).~.~.~.~.~.~.~.+ C.!./.b _ XX X X_.  2 XX X X X X X X X X X X X X X X X X X Xd.  ~.~.5./ F.~.~.~.~.~.~.~.~.~.~.(.  ~.",
"+X+X+X+Xc ~.~.~.~.~.~.~.v.i ~.~.p _  X X X X X X X X X X X X X X X X X X X X X X X X X X XK.  Q.N.* ^.!.~.~.~.~.~.~.~.~.~.~.! 5.",
"+X+X+X  n.~.~.~.~.~.~.~.B z./.C I .X X X X X X X X X X X X X X X X X X X X X X X X X X X X XJ.  ^.8 V.!.~.~.~.~.~.~.~.~.~.~.v.t ",
"+X+X+Xw (.~.~.~.~.~.~.~.  S.P g  X X X X X X X X X X X X X X X X X X X X X X X X X X X X X X XK.  c.t F.~.~.~.~.~.~.~.~.~.~.(.t ",
"+X+X+X^ ~.~.~.~.~.~.~.C.7 3.2  X X X X X X X X X XXXXXXXoXoX X X X X X X X X X X X X X X X X X XG.- X /.~.~.~.~.~.~.~.~.~.~.~.3.",
"+X+X  !.~.~.~.~.~.~.~.( L +  X X X X X X X XoXW < $ ; $   X d. X X X X X X X X X X X X X X X X X XG.  n.~.~.~.~.~.~.~.~.~.~.~.V.",
"+X+Xi /.~.~.~.~.~.~.F.6   _. X X X X X X XoXA [ P.W.W.`.}.|.I XX X X X X X X X X X X X X X X X XoXoXH.c ~.~.~.~.~.~.~.~.~.~.~.~.",
"+X+X:.~.!.~.~.~.~.~.~.  Y..XoXoXoXoX Xh._ x   J |.}.}.}.}.'.   X X X X X X Xs.k S F F S D x g e > + # + ~.~.~.~.~.~.~.~.~.~.~.~.",
"+X  !.!.~.~.~.~.~./.Z.= F i < +     . U 8.] _ |.{.{.{.}.}.] `  X X X X X X X[.s.a.a.p.a.s.f.K.L.Y.I.I.; F.~.~.~.~.~.~.~.~.~.~.~.",
"+Xc /.~.~.~.~.~.~.~.l.G g.g.R.R..XoXoXXX XT.< oX}.}.}.{.W.  oX X X X X X X X X X X X X X X X X X X X X7.w.!.~.~.~.~.~.~.~.~.~.~.",
"+X2.~.~.~.~.~.~.~.~.^ a. XXX X X X X X X XoXk 1.OX}.OXP.  Y. X X X X X X X X X X X X X X X X X X X X X].: ~.~.~.~.~.~.~.~.~.~.~.",
"  !.^.~.~.~.~.~.~.~.8 Y. X X X X X X X X X X Xr 9 [ s . L. X X X X X X X X X X X X X X XoXoX]. XoX X X.X  !./.~.~.~.~.~.~.~.~.F.",
"V /.!.~.~.~.~.~.~.~.  s  X X X X X X X X X X XoXP.q.L.oX X XXXoXoX.XoX.X X X X X X XoX9.9       ; T.[.+     B ^.~.~.~.~.~.~.~.~.",
"2.F.~.~.~.~.~.~.F.D.  X ].oXf.9.9.a. XoX X X X X X X X XoXK.o.<       > 0..X X X XL.+ ; f n n n i < @ u < u > 5.~.~.~.~.~.~.~.~.",
"v.!.~.~.~.~.~.~.~.S.% t.f D o 3 < +   F L..X X X XXXXXq.<   0 v n n n g 1 ; _.XXL.  d v v v v v d   + n f + v t ~.~.~.~.~.~.~.~.",
"~.F.~.~.~.~.~.~.~.V.t /.:   v n v v n q   o..X X XY.; * f n v v v v v v v e ; oX1 d v v n v v v u @ ; n v   d K ~.~.~.~.~.~.~.~.",
"~.~.~.~.~.~.~.~.~.j.! V @     0 u d d f v # I oXoXq u n v n v v v v v g f d   9.  q 9 9 9 9 0 y % 5 ; u u   > y.~.~.~.~.~.~.~.~.",
"~.~.~.~.~.~.F.~.~.3.r.  n 5   * + + + X       X 1 @ * * ; % + o X       X X     + < 5 0 q 5 3 *   +   % * X   A.~.~.~.~.~.~.~.~.",
"~.~.~.~.~.~.~.~.~.Z b.  v n     d v n v n n v   n e + f d f v g n n n n v n   9 5 n v v v v v q ; f   n v < ; ~.~.~.~.~.~.~.~.~.",
"~.~.~.~.~.~.~.~.~., A., g f   d   d v v g v n   A v   g v f v v v v v v v 5 3 v X n n v v v n   v v   n v & H ~.~.~.~.~.~.~.~.~.",
"!.~.~.~.~.~.~.~.!.+ !.j.0   d v d   f v n v n + v v u o v v v v v v v v v   f n o u v v v v u + v n   v v     !.~.~.~.~.~.~.~.~.",
"~.~.~.~.~.~.~.~.F.  ~.F.+ d v v v f   d v v n   n v v   v v v v v v v v < < v v s   n n v v + s v v 3 y < *   Q.~.~.~.~.~.~.~.~.",
"~.~.~.~.~.~.~.~.D.  ~.~.X v v v v v d   g v n   n v v d X v v v v v v n   v v v n : 5 n v f o n v v u >   *   C.F.~.~.~.~.~.~.~.",
"~.~.~.~.~.~.~.~.S.  ~.~.X v v v v v v y   n v   n v v v O * v v v v v % q n v v v n   v v q > v v v d X o + C j.~.~.~.~.~.~.F.~.",
"~.~.~.~.~.~.~.~.S.+ ~.~.3.: v v v v v n 3 ; v + v v v v v   v v v v n   v v v v v n < 3 n % d n v n d   d   j.~ ~.~.~.~.~.~.~.~.",
"~.~.~.~.~.~.~.~.Z.: ~.~.~.% i g v v v v n * < + v v v v n + g n v v + u v v v v v v g X n + n v v v 0   v   ~.% !.~.~.~.~.~.~.~.",
"~.~.~.~.~.~.~.~.V.7 ~.~.~.A.+ 2 v v v v v v   X v v v v v u 5 v k n   d v v v v v v n   n * + ; ; O O   v   ~.  S.~.~.~.~.~.~.~.",
"~.~.~.~.~.~.~.~.n.B F.~.~.~.D.B X 0 v v v v 3   b n N R R M { @.T c   v n n v v v n y + n v d e e d   L   x.~.+ V.~.~.~.~.~.~.~.",
"~.~.~.~.~.~.~.~.l.Q ~.~.F.^.' $ d <   & > > | O.$.;.;.*.=.*.-.#.-.$.X.j + 3 5 0 3 * X f v v v v v v u t !.~.~.p b.~.~.~.~.~.~.~.",
"~.~.~.~.~.~.~.~.u.' ~.~.!.n.  v v v v d y { #.} l # o o   3 N *.n Y ..;.O.z < < 5 u v v v v n v v v g . B.~.~.3.5.~.~.~.~.~.~.~.",
"~.~.~.~.~.~.~.~.t.6.~.~./.+ d v v v v v v ....v v n f u v v #.=.N v v v | -. .v v v v v v v v v v v v f ; ~.~.C.B ~.~.~.~.~.~.~.",
"~.~.~.~.~.~.~.~.e.k.F.~.Z 9 v v v v v v v  .X.v v v n d E +.$.#.$.v v v v M $.R g n v v v v v v v v v v > B.!./.O ~.~.~.~.~.~.~.",
"~.~.~.~.~.~.~.~.w.n.~.l.; v v v v v v v v T $.c g n } #.$.X.*.} $.Y v v v v } m n v v v v v v v v v v v v 3 ~./.X S.~.~.~.~.~.~."
};
