/* XPM */
static char *result[] = {
/* columns rows colors chars-per-pixel */
"64 64 179 2 ",
"   c #010101",
".  c #090405",
"X  c #060508",
"o  c #0A0609",
"O  c #070808",
"+  c #0B0A0A",
"@  c #100E0F",
"#  c #18090E",
"$  c #100305",
"%  c #0E0B10",
"&  c #130D12",
"*  c #1C0F14",
"=  c #151213",
"-  c #1C1416",
";  c #1A1917",
":  c #1C161C",
">  c #1C1C1A",
",  c #201417",
"<  c #22171A",
"1  c #291A1E",
"2  c #2A1719",
"3  c #1E1620",
"4  c #1E1820",
"5  c #241B26",
"6  c #2E1F24",
"7  c #271D28",
"8  c #252222",
"9  c #2C2425",
"0  c #262826",
"q  c #2D2B2B",
"w  c #35242B",
"e  c #362A2F",
"r  c #2E2030",
"t  c #3B2C33",
"y  c #362A3A",
"u  c #3D2E3F",
"i  c #322535",
"p  c #3D3B3B",
"a  c #373433",
"s  c #4F2C2D",
"d  c #532829",
"f  c #462E35",
"g  c #4E353E",
"h  c #473B3E",
"j  c #583232",
"k  c #603538",
"l  c #663737",
"z  c #733C3E",
"x  c #443446",
"c  c #4C3B4E",
"v  c #48364A",
"b  c #5B3E49",
"n  c #573C45",
"m  c #4E3B51",
"M  c #563F58",
"N  c #503D54",
"B  c #4A4544",
"V  c #4C4948",
"C  c #53504E",
"Z  c #5C465E",
"A  c #554158",
"S  c #535251",
"D  c #5B5655",
"F  c #5D5857",
"G  c #5E5B59",
"H  c #644751",
"J  c #674853",
"K  c #6B4956",
"L  c #625F5E",
"P  c #72525D",
"I  c #5D4A61",
"U  c #644B66",
"Y  c #664E6A",
"T  c #6A4E6D",
"R  c #67506F",
"E  c #6B526F",
"W  c #745B65",
"Q  c #7F5968",
"!  c #7B5864",
"~  c #6D4F72",
"^  c #6C5170",
"/  c #715272",
"(  c #7E5A76",
")  c #6C6966",
"_  c #6E6B6A",
"`  c #656160",
"'  c #726A6E",
"]  c #777170",
"[  c #797573",
"{  c #7E7979",
"}  c #8C6574",
"|  c #8C6975",
" . c #916777",
".. c #946D7B",
"X. c #9A6F7F",
"o. c #817C7B",
"O. c #BB6266",
"+. c #CE6D6B",
"@. c #84827F",
"#. c #8C6584",
"$. c #956989",
"%. c #9E7081",
"&. c #9D708F",
"*. c #AA7A8C",
"=. c #A37285",
"-. c #B27F8F",
";. c #8A8583",
":. c #858480",
">. c #938D8B",
",. c #979392",
"<. c #9B9494",
"1. c #9E9B98",
"2. c #AE8192",
"3. c #B58496",
"4. c #BE8B9D",
"5. c #B88599",
"6. c #A19797",
"7. c #BE89A7",
"8. c #B785A2",
"9. c #ABA6A5",
"0. c #AEAAA9",
"q. c #B3ACAB",
"w. c #B7B1AF",
"e. c #B6B1B0",
"r. c #BDB7B4",
"t. c #C1889D",
"y. c #FF8787",
"u. c #FF8688",
"i. c #FF8F8E",
"p. c #C08FA1",
"a. c #C48EAD",
"s. c #CB92A6",
"d. c #CD95AB",
"f. c #D296AC",
"g. c #D298AF",
"h. c #D59DB2",
"j. c #DA9CB3",
"k. c #DFA0B7",
"l. c #C1B8B7",
"z. c #C1BBBA",
"x. c #E2A3BA",
"c. c #E9A6BF",
"v. c #E7A8C0",
"b. c #ECA9C2",
"n. c #E6A3C0",
"m. c #F1ACC6",
"M. c #F3AEC8",
"N. c #EBB7C7",
"B. c #EBBBCA",
"V. c #F7B3CC",
"C. c #FEB4CF",
"Z. c #F2B1C7",
"A. c #FEB5D1",
"S. c #FFBAD5",
"D. c #FFBDD9",
"F. c #CCC5C3",
"G. c #D3CDCB",
"H. c #DED6D4",
"J. c #FFC4DA",
"K. c #FECADA",
"L. c #FEC0D5",
"P. c #E6DEDE",
"I. c #E9DEDE",
"U. c #FFD1DF",
"Y. c #E7E0DD",
"T. c #E9E2DF",
"R. c #FDD7E3",
"E. c #ECE4E3",
"W. c #EFE8E6",
"Q. c #F0E9E6",
"!. c #F4ECEA",
"~. c #FBEBEC",
"^. c #F7F0EE",
"/. c #FBF2EE",
"(. c #FCECF0",
"). c #FFF5F3",
"_. c #FFF9F6",
"`. c #FFFDFB",
"'. c None",
/* pixels */
"'.'.'.'.'.'.'.'.'.'.'.'.'.'.'.'.'.'.'.'.'.'.'.'.'.'.'.'.'.'.'.'.'.'.'.'.'.'.'.'.'.'.'.'.'.'.'.'.'.'.'.'.'.'.'.'.'.'.'.'.'.'.'.'.",
"'.'.'.'.'.'.'.'.'.'.'.'.'.'.'.'.'.'.'.'.'.'.'.'.'.'.'.'.'.'.'.'.'.'.'.'.'.'.'.'.'.'.'.'.'.'.'.'.'.'.'.'.'.'.'.'.'.'.'.'.'.'.'.'.",
"'.'.'.'.'.'.'.'.'.'.'.'.'.'.'.'.'.'.'.'.'.'.'.'.'.'.'.'.'.'.'.'.'.'.'.'.'.'.'.'.'.'.'.'.'.'.'.'.'.'.'.'.'.'.'.'.'.'.'.'.'.'.'.'.",
"'.'.'.'.'.'.'.'.'.'.'.'.  : X '.'.'.'.'.'.'.'.'.'.'.'.'.'.'.'.'.'.'.'.'.'.'.'.'.'.'.'.'.'.'.'.'.'.'.'.'.'.'.'.'.'.'.'.'.'.'.'.'.",
"'.'.'.'.'.'.'.'.'.'.'.O y ^ 5 '.'.'.'.'.'.'.'.'.'.'.'.'.  4 & '.'.'.'.'.'.'.'.'.'.'.'.'.'.'.'.'.'.'.'.'.'.'.'.'.'.'.'.'.'.'.'.'.",
"'.'.'.'.'.'.'.'.'.'.'.o E ^ ^ X '.'.'.'.'.'.'.'.'.'.X : / ^ I + '.'.'.'.'.'.'.'.'.'.'.'.'.'.'.'.'.'.'.'.'.'.'.'.'.'.'.'.'.'.'.'.",
"'.'.'.'.'.'.'.'.'.'.X Z E ^ ^ y '.'.'.'.'.'.'.'.'.  x ^ ^ ^ Y   '.'.'.'.'.'.'.'.'.'.'.'.'.'.'.'.'.'.'.'.'.'.'.'.'.'.'.'.'.'.'.'.",
"'.'.'.'.'.'.'.'.'.'.% ^ ^ ^ ^ ^   '.'.'.'.'.'.O & E ^ ^ ^ ^ Y   O '.'.'.'.'.'.'.'.'.'.'.'.'.'.'.'.'.'.'.'.'.'.'.'.'.'.'.'.'.'.'.",
"'.'.'.'.'.'.'.'.'.  U E ^ ^ T / & '.'.'.'.'.X 7 / T E ^ ^ ^ T   K X '.'.'.'.'.'.'.'.'.'.'.'.'.'.'.'.'.'.'.'.'.'.'.'.'.'.'.'.'.'.",
"'.'.'.'.'.'.'.'.'.o E ^ E ^ ^ ^ u m '.'.'.  u ~ ^ ^ ^ E ^ T T . C.b.+ O '.'.'.'.'.'.'.'.'.'.'.'.'.'.'.'.'.'.'.'.'.'.'.'.'.'.'.'.",
"'.'.'.'.'.'.'.'.O c E ^ ^ ^ E E / 3     X c R ^ ^ ^ ^ ^ ^ ^ T   - Z.C. .  X '.'.'.'.'.'.'.'.'.'.'.'.'.'.'.'.'.'.'.'.'.'.'.'.'.'.",
"'.'.'.'.'.'.'.'.X E ^ E T ^ ^ ^ 7 3 / x & ^ ^ ^ ^ ^ ^ E ^ ^ Y . 3.. d.C.C.d.w '.'.'.'.'.'.'.'.'.'.'.'.'.'.'.'.'.'.'.'.'.'.'.'.'.",
"'.'.'.'.'.'.'.'.& ^ ^ ^ ^ ^ ^ I   / ^ ~ T ^ ^ / ^ E ^ ^ ^ ^ Y o V.M.X g.C.D.- '.'.'.'.'.'.'.'.'.'.'.'.'.'.'.'.'.'.'.'.'.'.'.'.'.",
"'.'.'.'.'.'.'.+ m ^ ^ ^ ^ R Y / ( $.&.&.#./ T R ^ ^ E ^ ^ ^ Y 2 C.C.Z.  b.g.  '.'.'.'.'.'.'.'.'.'.'.'.'.'.'.'.'.'.'.'.'.'.'.'.'.",
"'.'.'.'.'.'.'.  ^ ^ ^ ^ 7.m.V.A.C.A.C.A.A.A.m.8.R ~ E ^ E ^ I J C.C.C.t.o '.'.'.'.'.'.'.'.'.'.'.'.'.'.'.'.'.'.'.'.'.'.'.'.'.'.'.",
"'.'.'.'.'.'.'.o M   5.V.C.C.C.A.C.C.C.C.C.C.C.A.A.d.T E ^ T Z h.C.C.C.C.g '.'.'.'.'.'.'.'.'.'.'.'.'.'.'.'.'.'.'.'.'.'.'.'.'.'.'.",
"'.'.'.'.'.'.'.X . x.A.C.C.C.C.C.C.A.C.C.C.A.C.C.C.C.V.a./ T y A.C.C.C.C.S.& '.'.'.'.'.'.'.'.'.'.'.'.'.'.'.'.'.'.'.'.'.'.'.'.'.'.",
"'.'.'.'.'.'.  6 A.A.C.C.C.C.C.C.C.C.C.C.C.C.C.C.C.A.C.C.A.n.1 t.A.C.C.C.C.3.  '.'.'.'.'.'.'.'.'.'.'.'.'.'.'.'.'.'.'.'.'.'.'.'.'.",
"'.'.'.'.'.. w D.C.C.C.C.C.C.C.C.C.C.C.C.C.C.C.C.C.C.C.C.A.V.V.  C.C.C.C.C.S.6 '.'.'.'.'.'.'.'.'.'.'.'.'.'.'.'.'.'.'.'.'.'.'.'.'.",
"'.'.'.'.'.9 S.C.C.C.C.C.C.C.C.C.C.C.C.C.C.C.C.C.C.C.C.C.C.C.A.6 f.C.C.C.C.C.d.  '.'.'.'.'.'.'.'.'.'.'.'.'.'.'.'.'.'.'.'.'.'.'.'.",
"'.'.'.'.& S.C.C.C.C.C.C.C.C.C.C.C.C.C.C.C.C.C.A.C.C.C.C.C.C.C.V.  C.C.C.C.C.S.w '.'.'.'.'.'.'.'.'.'.'.'.'.'.'.'.'.'.'.'.'.'.'.'.",
"'.'.'.  g.A.C.C.C.C.C.A.A.C.C.C.C.C.C.C.C.C.C.A.S.C.C.C.C.C.C.C.  m.C.C.C.C.C.5.  '.'.'.'.'.'.'.'.'.'.'.'.'.'.'.'.'.'.'.'.'.'.'.",
"'.'.'.g A.C.C.C.C.C.C.X.5.C.C.C.C.C.C.C.C.C.A.2.n C.C.C.C.A.C.A.5.b C.C.C.C.A.D.< '.'.'.'.'.'.'.'.'.'.'.'.'.'.'.'.'.'.'.'.'.'.'.",
"'.'.  x.C.C.C.C.C.C.C.3., C.C.C.C.C.C.C.C.C.d.  f.C.C.C.C.C.C.C.A.  V.C.C.C.C.V.=.  '.'.'.'.'.'.'.'.'.'.'.'.'.'.'.'.'.'.'.'.'.'.",
"'.'.w S.C.C.C.C.C.C.C.  . c.C.C.C.C.C.C.A.k.  ) 2 S.A.A.C.C.C.C.C.* k.C.C.C.C.C.D.& '.'.'.'.'.'.'.'.'.'.'.'.'.'.'.'.'.'.'.'.'.'.",
"'.'.Q C.C.C.C.C.C.C.H { <.H A.C.C.C.C.C.b.o e.`._ w A.A.C.C.C.C.C.f.H C.C.C.C.C.C.%.  '.'.'.'.'.'.'.'.'.'.'.'.'.'.'.'.'.'.'.'.'.",
"'.  c.C.A.C.C.C.C.c.X /.`.  M.C.C.C.C.V.& 9.).).`.q K A.C.C.C.C.C.S.  C.A.C.A.C.C.S., '.'.'.'.'.'.'.'.'.'.'.'.'.'.'.'.'.'.'.'.'.",
"'.- D.C.C.C.C.C.C.= G.).).) ! A.C.C.A.1 <.).).).).).+ *.C.C.C.C.C.C.# t.f.s.p.m.C.C.j.  '.'.'.'.'.'.'.'.'.'.'.'.'.'.'.'.'.'.'.'.",
"'.n A.C.C.C.C.C.g.; ).).).`.X j.C.A.t ' `.).).).).).Q.  h.A.C.C.C.V.f = 8 0 8 } A.C.C.3.  '.'.'.'.'.'.'.'.'.'.'.'.'.'.'.'.'.'.'.",
"'.! C.C.C.C.C.c.  G.).).).).G.  V.P q `.).).).).).).).G.  *.C.C.C.C.k.) ).).[ ..A.C.C.V.Z.=   '.'.'.'.'.'.'.'.'.'.'.'.'.'.'.'.'.",
"  -.C.C.C.C.C.d.      E.).).).0.  O `.).).).).).).z.      X S.C.C.C.D.. _.`.0 g.C.C.C.C.A.A.}   '.'.'.'.'.'.'.'.'.'.'.'.'.'.'.'.",
"  x.C.C.C.C.A.b         F ).).).).).).).).).).;.          ; P C.C.C.S.  ).~.o S.C.C.C.C.C.b.  o '.'.'.'.'.'.'.'.'.'.'.'.'.'.'.'.",
"  C.C.C.C.C.V.  q         p _.).).).).).).q.          w./.).W.C.C.C.A.  ).B *.A.C.C.C.A.P   '.'.'.'.'.'.'.'.'.'.'.'.'.'.'.'.'.'.",
"X S.C.C.A.C.b.> ).Q.        H._.)._.I.W.) +       ; `./.).).).V.C.C.A.. `.  V.A.A.C.j.  . '.'.'.'.'.'.'.'.'.'.'.'.'.'.'.'.'.'.'.",
"  D.C.C.C.A.} q.).`.F       G.p @   h @ t + 8       X ] `./.).~.A.A.A.  [ P A.A.A.A.J.'.'.'.'.'.'.'.'.'.'.'.'.'.'.'.'.'.'.'.'.'.",
"  V.C.C.C.A.w ^.C X       0.@.W B.K.K.B.K.  `.9.        q `.).).A.V.A.. 0 b.C.C.S.V.'.'.'.'.'.'.'.'.'.'.'.'.'.'.'.'.'.'.'.'.'.'.",
"  s.C.C.C.A.o ,.      ` Y.).G.< K.K.J.K.U.- (.).Q.F       p /.).R.C.A.  D.C.A.V.'.'.'.'.'.'.'.'.'.'.'.'.'.'.'.'.'.'.'.'.'.'.'.'.",
"'...C.C.C.A.      @.W.).).).`.  B.K.K.K.R.  `.).)._.w.    + ).)._.C.S.  A.V.'.'.'.'.'.'.'.'.'.'.'.'.'.'.'.'.'.'.'.'.'.'.'.'.'.'.",
"'.j.C.C.C.V.  E.E.).).).).).).] 6 K.J.K.K.z.).).).).).W.S W.).).)./.S.# '.'.'.'.'.'.'.'.'.'.'.'.'.'.'.'.'.'.'.'.'.'.'.'.'.'.'.'.",
"'.'.S.C.C.A.  `.).).).).).).).`.r.~.~.~.).).).).).).).).`.).).).).).`.'.'.'.'.'.'.'.'.'.'.'.'.'.'.'.'.'.'.'.'.'.'.'.'.'.'.'.'.'.",
"'.'.'.D.A.S.- `.).).).).).).).)./.).).).).).).)._._._._.).)._.).).`.'.'.'.'.'.'.'.'.'.'.'.'.'.'.'.'.'.'.'.'.'.'.'.'.'.'.'.'.'.'.",
"'.'.'.'.'.C.} V >.q.G.E.!.!.!.E.Y.H.F.r.9.6.>.;.#.{ [ [ [ >.`.).'.'.'.'.'.'.'.'.'.'.'.'.'.'.'.'.'.'.'.'.'.'.'.'.'.'.'.'.'.'.'.'.",
"'.'.'.'.'.'.'.'.                    8 p   j k l z z j = [ L '.'.'.'.'.'.'.'.'.'.'.'.'.'.'.'.'.'.'.'.'.'.'.'.'.'.'.'.'.'.'.'.'.'.",
"'.'.'.'.'.'.'.'.'.'.'.'.'.'.'.'.'.o 0.`.L d i.y.u.u.o D ).W.  '.'.'.'.'.'.'.'.'.'.'.'.'.'.'.'.'.'.'.'.'.'.'.'.'.'.'.'.'.'.'.'.'.",
"'.'.'.'.'.'.'.'.'.'.'.'.'.'.'.'.'.'.q `.`.S 2 O.+.s & a ).).  '.'.'.'.'.'.'.'.'.'.'.'.'.'.'.'.'.'.'.'.'.'.'.'.'.'.'.'.'.'.'.'.'.",
"'.'.'.'.'.'.'.'.'.'.'.'.'.'.'.'.'.'.  /.).`.; O % i A B ).).> '.'.'.'.'.'.'.'.'.'.'.'.'.'.'.'.'.'.'.'.'.'.'.'.'.'.'.'.'.'.'.'.'.",
"'.'.'.'.'.'.'.'.'.'.'.'.'.'.'.'.'.'.  q.).).F.  / ^ c D ).).>.'.'.'.'.'.'.'.'.'.'.'.'.'.'.'.'.'.'.'.'.'.'.'.'.'.'.'.'.'.'.'.'.'.",
"'.'.'.'.'.'.'.'.'.'.'.'.'.'.'.'.'.'.'.B `.).`.] w ^ m F ).).G.'.'.'.'.'.'.'.'.'.'.'.'.'.'.'.'.'.'.'.'.'.'.'.'.'.'.'.'.'.'.'.'.'.",
"'.'.'.'.'.'.'.'.'.'.'.'.'.'.'.'.'.'.'.  !.).)./.  E m V ).).I.X '.'.'.'.'.'.'.'.'.'.'.'.'.'.'.'.'.'.'.'.'.'.'.'.'.'.'.'.'.'.'.'.",
"'.'.'.'.'.'.'.'.'.'.'.'.'.'.'.'.'.'.'.  ,.).).).<.5 M a ).).E.O '.'.'.'.'.'.'.'.'.'.'.'.'.'.'.'.'.'.'.'.'.'.'.'.'.'.'.'.'.'.'.'.",
"'.'.'.'.'.'.'.'.'.'.'.'.'.'.'.'.'.'.'.'.O `.).).!.  Y q ).).E.O '.'.'.'.'.'.'.'.'.'.'.'.'.'.'.'.'.'.'.'.'.'.'.'.'.'.'.'.'.'.'.'.",
"'.'.'.'.'.'.'.'.'.'.'.'.'.'.'.'.'.'.'.'.  1.).).).1.c ' ).).E.O '.'.'.'.'.'.'.'.'.'.'.'.'.'.'.'.'.'.'.'.'.'.'.'.'.'.'.'.'.'.'.'.",
"'.'.'.'.'.'.'.'.'.'.'.'.'.'.'.'.'.'.'.'.'.  `.).'.'.'.'.'.'.P.'.'.'.'.'.'.'.'.'.'.'.'.'.'.'.'.'.'.'.'.'.'.'.'.'.'.'.'.'.'.'.'.'.",
"'.'.'.'.'.'.'.'.'.'.'.'.'.'.'.'.'.'.'.'.'.'.X '.'.'.'.'.'.'.'.'.'.'.'.'.'.'.'.'.'.'.'.'.'.'.'.'.'.'.'.'.'.'.'.'.'.'.'.'.'.'.'.'.",
"'.'.'.'.'.'.'.'.'.'.'.'.'.'.'.'.'.'.'.'.'.'.'.'.'.'.'.'.'.'.'.'.'.'.'.'.'.'.'.'.'.'.'.'.'.'.'.'.'.'.'.'.'.'.'.'.'.'.'.'.'.'.'.'.",
"'.'.'.'.'.'.'.'.'.'.'.'.'.'.'.'.'.'.'.'.'.'.'.'.'.'.'.'.'.'.'.'.'.'.'.'.'.'.'.'.'.'.'.'.'.'.'.'.'.'.'.'.'.'.'.'.'.'.'.'.'.'.'.'.",
"'.'.'.'.'.'.'.'.'.'.'.'.'.'.'.'.'.'.'.'.'.'.'.'.'.'.'.'.'.'.'.'.'.'.'.'.'.'.'.'.'.'.'.'.'.'.'.'.'.'.'.'.'.'.'.'.'.'.'.'.'.'.'.'.",
"'.'.'.'.'.'.'.'.'.'.'.'.'.'.'.'.'.'.'.'.'.'.'.'.'.'.'.'.'.'.'.'.'.'.'.'.'.'.'.'.'.'.'.'.'.'.'.'.'.'.'.'.'.'.'.'.'.'.'.'.'.'.'.'.",
"'.'.'.'.'.'.'.'.'.'.'.'.'.'.'.'.'.'.'.'.'.'.'.'.'.'.'.'.'.'.'.'.'.'.'.'.'.'.'.'.'.'.'.'.'.'.'.'.'.'.'.'.'.'.'.'.'.'.'.'.'.'.'.'.",
"'.'.'.'.'.'.'.'.'.'.'.'.'.'.'.'.'.'.'.'.'.'.'.'.'.'.'.'.'.'.'.'.'.'.'.'.'.'.'.'.'.'.'.'.'.'.'.'.'.'.'.'.'.'.'.'.'.'.'.'.'.'.'.'.",
"'.'.'.'.'.'.'.'.'.'.'.'.'.'.'.'.'.'.'.'.'.'.'.'.'.'.'.'.'.'.'.'.'.'.'.'.'.'.'.'.'.'.'.'.'.'.'.'.'.'.'.'.'.'.'.'.'.'.'.'.'.'.'.'.",
"'.'.'.'.'.'.'.'.'.'.'.'.'.'.'.'.'.'.'.'.'.'.'.'.'.'.'.'.'.'.'.'.'.'.'.'.'.'.'.'.'.'.'.'.'.'.'.'.'.'.'.'.'.'.'.'.'.'.'.'.'.'.'.'.",
"'.'.'.'.'.'.'.'.'.'.'.'.'.'.'.'.'.'.'.'.'.'.'.'.'.'.'.'.'.'.'.'.'.'.'.'.'.'.'.'.'.'.'.'.'.'.'.'.'.'.'.'.'.'.'.'.'.'.'.'.'.'.'.'.",
"'.'.'.'.'.'.'.'.'.'.'.'.'.'.'.'.'.'.'.'.'.'.'.'.'.'.'.'.'.'.'.'.'.'.'.'.'.'.'.'.'.'.'.'.'.'.'.'.'.'.'.'.'.'.'.'.'.'.'.'.'.'.'.'."
};
