/* XPM */
static char *result[] = {
/* columns rows colors chars-per-pixel */
"64 64 181 2 ",
"   c #010101",
".  c #090405",
"X  c #070609",
"o  c #0A060A",
"O  c #070908",
"+  c #0B0A0B",
"@  c #060806",
"#  c #130D0F",
"$  c #140606",
"%  c #10100E",
"&  c #140D12",
"*  c #1A0F12",
"=  c #141312",
"-  c #1C1215",
";  c #1D151D",
":  c #1C1D1B",
">  c #231B1D",
",  c #251417",
"<  c #1F1621",
"1  c #241B25",
"2  c #291C21",
"3  c #271C29",
"4  c #232222",
"5  c #2B2325",
"6  c #2D2B2A",
"7  c #2C212D",
"8  c #302126",
"9  c #332529",
"0  c #3B272C",
"q  c #32302F",
"w  c #2E2132",
"e  c #332535",
"r  c #39293B",
"t  c #363434",
"y  c #393534",
"u  c #3E3C3B",
"i  c #492827",
"p  c #4D2728",
"a  c #422C35",
"s  c #482F37",
"d  c #43383C",
"f  c #5B3335",
"g  c #50373F",
"h  c #673836",
"j  c #753D3D",
"k  c #42403F",
"l  c #3D3040",
"z  c #4E3941",
"x  c #473749",
"c  c #48364B",
"v  c #463849",
"b  c #4B3A4D",
"n  c #423344",
"m  c #523B43",
"M  c #563944",
"N  c #523F56",
"B  c #444240",
"V  c #5F444E",
"C  c #504D4C",
"Z  c #58445C",
"A  c #575454",
"S  c #5A5655",
"D  c #5E5A58",
"F  c #5A5955",
"G  c #6B4D58",
"H  c #714E5C",
"J  c #625D5D",
"K  c #70505B",
"L  c #66615F",
"P  c #5D4960",
"I  c #614B64",
"U  c #664E6A",
"Y  c #684F6E",
"T  c #6B516F",
"R  c #735561",
"E  c #70506F",
"W  c #6E4F70",
"Q  c #6C5170",
"!  c #715473",
"~  c #7F5B79",
"^  c #666362",
"/  c #6B6664",
"(  c #726E6C",
")  c #75726F",
"_  c #7A7574",
"`  c #7A7676",
"'  c #82626F",
"]  c #8C6573",
"[  c #8D6977",
"{  c #956B7A",
"}  c #9A6B7C",
"|  c #85737B",
" . c #827E7D",
".. c #96707E",
"X. c #BB6564",
"o. c #CE6D6D",
"O. c #8E6582",
"+. c #936A88",
"@. c #9B7382",
"#. c #9C718E",
"$. c #A57789",
"%. c #A07384",
"&. c #B07C8E",
"*. c #AC7F90",
"=. c #B17F92",
"-. c #8D8888",
";. c #888482",
":. c #928C8B",
">. c #988F8F",
",. c #9D9898",
"<. c #9C9593",
"1. c #BC879A",
"2. c #B68798",
"3. c #A29D9C",
"4. c #A7A19E",
"5. c #B682A1",
"6. c #ACA5A3",
"7. c #A6A2A1",
"8. c #B5AFAE",
"9. c #B5B1AE",
"0. c #B7B2B1",
"q. c #BAB4B2",
"w. c #BFBAB9",
"e. c #C1899E",
"r. c #FF8687",
"t. c #FF8989",
"y. c #FF8F90",
"u. c #C48EA2",
"i. c #C28DAB",
"p. c #CC8EA4",
"a. c #CB92A7",
"s. c #C794A8",
"d. c #CC94AB",
"f. c #CE98AC",
"g. c #D194AB",
"h. c #D598AE",
"j. c #DB9DB4",
"k. c #D49CB0",
"l. c #DEA1B7",
"z. c #DFA2B8",
"x. c #C1BBB9",
"c. c #E3A3BC",
"v. c #E2AABD",
"b. c #EDAAC3",
"n. c #EBA5C0",
"m. c #F2AEC6",
"M. c #F4AEC9",
"N. c #FAAFCB",
"B. c #ECBBCB",
"V. c #E6B6C4",
"C. c #F5B1CA",
"Z. c #FEB4CF",
"A. c #F5B9CF",
"S. c #FFB5D1",
"D. c #FFB9D4",
"F. c #FFBDD9",
"G. c #CCC5C5",
"H. c #CECAC9",
"J. c #D4CECC",
"K. c #D1CAC7",
"L. c #DDD6D3",
"P. c #DED8D6",
"I. c #DDDADA",
"U. c #FFC4DA",
"Y. c #FECADA",
"T. c #E7DDDE",
"R. c #E7E0DD",
"E. c #E9E1DF",
"W. c #FDD9E5",
"Q. c #EDE6E4",
"!. c #EFE8E6",
"~. c #F0E9E7",
"^. c #F4ECEA",
"/. c #FCEBEC",
"(. c #FBE6E9",
"). c #FAF1EF",
"_. c #FEEBF0",
"`. c #FFF5F3",
"'. c #FFF9F6",
"]. c #FFFDFB",
"[. c None",
/* pixels */
"[.[.[.[.[.[.[.[.[.[.[.[.[.[.[.[.[.[.[.[.[.[.[.[.[.[.[.[.[.[.[.[.[.[.[.[.[.[.[.[.[.[.[.[.[.[.[.[.[.[.[.[.[.[.[.[.[.[.[.[.[.[.[.[.",
"[.[.[.[.[.[.[.[.[.[.[.[.[.[.[.[.[.[.[.[.[.[.[.[.[.[.[.[.[.[.[.[.[.[.[.[.[.[.[.[.[.[.[.[.[.[.[.[.[.[.[.[.[.[.[.[.[.[.[.[.[.[.[.[.",
"[.[.[.[.[.[.[.[.[.[.[.[.[.[.[.[.[.[.[.[.[.[.[.[.[.[.[.[.[.[.[.[.[.[.[.[.[.[.[.[.[.[.[.[.[.[.[.[.[.[.[.[.[.[.[.[.[.[.[.[.[.[.[.[.",
"[.[.[.[.[.[.[.[.[.[.[.[.[.[.[.[.[.[.[.[.[.[.[.[.[.[.[.[.[.[.[.[.[.[.[.[.[.[.[.[.[.[.[.[.[.[.[.[.[.  <   [.[.[.[.[.[.[.[.[.[.[.[.",
"[.[.[.[.[.[.[.[.[.[.[.[.[.[.[.[.[.[.[.[.[.[.[.[.[.[.[.[.[.[.[.[.[.= 1   [.[.[.[.[.[.[.[.[.[.[.[.[.< Q r O [.[.[.[.[.[.[.[.[.[.[.",
"[.[.[.[.[.[.[.[.[.[.[.[.[.[.[.[.[.[.[.[.[.[.[.[.[.[.[.[.[.[.[.[.+ P W ! ;   [.[.[.[.[.[.[.[.[.[.+ Q Q Q X [.[.[.[.[.[.[.[.[.[.[.",
"[.[.[.[.[.[.[.[.[.[.[.[.[.[.[.[.[.[.[.[.[.[.[.[.[.[.[.[.[.[.[.[.  U Q Q Q c   [.[.[.[.[.[.[.[.[.w Q Q Q I . [.[.[.[.[.[.[.[.[.[.",
"[.[.[.[.[.[.[.[.[.[.[.[.[.[.[.[.[.[.[.[.[.[.[.[.[.[.[.[.[.[.[.o   U Q Q Q Q Q + X [.[.[.[.[.[.  Q Q Q Q Q + [.[.[.[.[.[.[.[.[.[.",
"[.[.[.[.[.[.[.[.[.[.[.[.[.[.[.[.[.[.[.[.[.[.[.[.[.[.[.[.[.[.  K   U Q Q Y Q Q Q 3 @ [.[.[.[.[.= Q Y Q Q Q U   [.[.[.[.[.[.[.[.[.",
"[.[.[.[.[.[.[.[.[.[.[.[.[.[.[.[.[.[.[.[.[.[.[.[.[.[.[.[.O + m.S.X U Q Q Q Q Q Q Q l   [.[.[.v e Q Q Q Q Q Q o [.[.[.[.[.[.[.[.[.",
"[.[.[.[.[.[.[.[.[.[.[.[.[.[.[.[.[.[.[.[.[.[.[.[.[.[.  . { Z.C.*   U Q Q Q Q Q Q Q Q c     X < Q Q Q Q Q Q Y c + [.[.[.[.[.[.[.[.",
"[.[.[.[.[.[.[.[.[.[.[.[.[.[.[.[.[.[.[.[.[.[.[.[.[.8 d.Z.Z.d.  2.  U Q Q Q Q Q Y Q Q Q & n Q 1 3 Q Q Q Q Q Q Q   [.[.[.[.[.[.[.[.",
"[.[.[.[.[.[.[.[.[.[.[.[.[.[.[.[.[.[.[.[.[.[.[.[.[.> D.Z.k.. C.Z.o U T Q Q Q Q Q Q Q W Y W W W o P Q Q Q Q Q W & [.[.[.[.[.[.[.[.",
"[.[.[.[.[.[.[.[.[.[.[.[.[.[.[.[.[.[.[.[.[.[.[.[.[.  c.c.  M.Z.Z.- U T T T Q W W Q W Y O.#.#.+.' W U Y Q Q W Y c [.[.[.[.[.[.[.[.",
"[.[.[.[.[.[.[.[.[.[.[.[.[.[.[.[.[.[.[.[.[.[.[.[.[.[.[.+ u.S.Z.Z.M I T Q Q E Q Y 5.b.S.S.S.Z.S.S.S.Z.b.5.W W Q !   [.[.[.[.[.[.[.",
"[.[.[.[.[.[.[.[.[.[.[.[.[.[.[.[.[.[.[.[.[.[.[.[.[.[.[.s S.Z.Z.Z.s.Z T Q Y E d.S.S.S.S.S.Z.Z.Z.Z.Z.S.D.D.S.2.  Z + [.[.[.[.[.[.[.",
"[.[.[.[.[.[.[.[.[.[.[.[.[.[.[.[.[.[.[.[.[.[.[.[.[.[.= D.Z.Z.Z.Z.S.r Y Q i.Z.S.Z.Z.Z.Z.Z.Z.Z.Z.Z.Z.Z.Z.Z.Z.Z.j.    [.[.[.[.[.[.[.",
"[.[.[.[.[.[.[.[.[.[.[.[.[.[.[.[.[.[.[.[.[.[.[.[.[.  2.Z.Z.Z.Z.Z.=.0 c.S.Z.Z.Z.Z.Z.Z.Z.Z.S.Z.Z.Z.Z.Z.Z.Z.Z.Z.S.Z.2 + [.[.[.[.[.[.",
"[.[.[.[.[.[.[.[.[.[.[.[.[.[.[.[.[.[.[.[.[.[.[.[.[.8 D.Z.Z.Z.Z.Z.  C.Z.Z.Z.Z.Z.Z.S.Z.Z.Z.Z.Z.Z.Z.Z.Z.Z.Z.Z.Z.Z.Z.D.9 X [.[.[.[.[.",
"[.[.[.[.[.[.[.[.[.[.[.[.[.[.[.[.[.[.[.[.[.[.[.[.  a.Z.Z.Z.Z.Z.p.0 S.Z.Z.Z.Z.Z.Z.Z.Z.Z.Z.Z.Z.Z.Z.Z.Z.Z.Z.Z.Z.Z.Z.S.D.8 [.[.[.[.[.",
"[.[.[.[.[.[.[.[.[.[.[.[.[.[.[.[.[.[.[.[.[.[.[.[.9 D.Z.Z.Z.Z.Z.  Z.Z.Z.Z.Z.Z.Z.Z.Z.Z.Z.Z.Z.Z.Z.Z.S.Z.Z.Z.Z.Z.Z.Z.Z.Z.Z.- [.[.[.[.",
"[.[.[.[.[.[.[.[.[.[.[.[.[.[.[.[.[.[.[.[.[.[.[.  &.Z.Z.Z.Z.Z.b.o S.Z.Z.Z.S.Z.Z.D.D.Z.Z.Z.Z.Z.Z.Z.Z.Z.Z.Z.S.Z.Z.S.Z.Z.Z.g.  [.[.[.",
"[.[.[.[.[.[.[.[.[.[.[.[.[.[.[.[.[.[.[.[.[.[.[.> F.Z.Z.Z.Z.S.d a.Z.Z.Z.Z.Z.Z.Z.m 2.Z.Z.Z.Z.Z.Z.Z.Z.Z.Z.u.$.Z.Z.Z.Z.Z.S.S.m [.[.[.",
"[.[.[.[.[.[.[.[.[.[.[.[.[.[.[.[.[.[.[.[.[.[.  } Z.Z.Z.Z.Z.C.  Z.Z.Z.Z.Z.Z.Z.Z.z.  f.Z.Z.S.Z.Z.Z.Z.Z.Z.* 2.S.Z.Z.Z.Z.Z.Z.j.  [.[.",
"[.[.[.[.[.[.[.[.[.[.[.[.[.[.[.[.[.[.[.[.[.[.= U.S.Z.Z.Z.Z.z., Z.Z.Z.Z.Z.Z.Z.D.; )   c.Z.Z.Z.Z.Z.Z.Z.b.    S.Z.Z.Z.Z.Z.Z.D.9 [.[.",
"[.[.[.[.[.[.[.[.[.[.[.[.[.[.[.[.[.[.[.[.[.  } Z.Z.Z.Z.Z.Z.g k.S.Z.S.Z.Z.Z.D.a J '.0.  b.Z.Z.Z.Z.Z.S.R :._ V Z.Z.Z.Z.Z.Z.Z.] [.[.",
"[.[.[.[.[.[.[.[.[.[.[.[.[.[.[.[.[.[.[.[.[., U.Z.Z.S.Z.Z.Z.  S.Z.Z.Z.Z.Z.D.K 6 ].`.`.6.& C.Z.Z.Z.Z.m.  ].`.  b.Z.Z.Z.Z.Z.Z.l.  [.",
"[.[.[.[.[.[.[.[.[.[.[.[.[.[.[.[.[.[.[.[.  g.Z.Z.m.u.p.g.u.+ S.S.Z.Z.Z.S.%.+ '.`.`.`.`.:.2 S.Z.Z.Z.[ A `.`.H.- Z.Z.S.Z.Z.Z.F.- [.",
"[.[.[.[.[.[.[.[.[.[.[.[.[.[.[.[.[.[.[.  1.Z.Z.Z.{ 1 5 4 = g Z.Z.Z.Z.Z.f.  ^.`.`.`.`.`.]./ a S.S.j.@ ].`.`.`.= j.Z.Z.Z.Z.Z.S.m [.",
"[.[.[.[.[.[.[.[.[.[.[.[.[.[.[.[.[.  # m.Z.Z.Z.Z...L `.'.F v.Z.Z.Z.S.@.  J.`.`.`.`.`.`.`.].t H C.  G.`.`.`.`.H.  c.Z.Z.Z.Z.Z.] [.",
"[.[.[.[.[.[.[.[.[.[.[.[.[.[.[.[.  ] Z.Z.Z.Z.Z.Z.a.6 '.'.  D.S.Z.Z.D.@       w.).`.`.`.`.`.].%   >.`.`.`.Q.      k.S.Z.Z.Z.Z.1.  ",
"[.[.[.[.[.[.[.[.[.[.[.[.[.[.[.[.o   b.Z.Z.Z.Z.Z.D.. '.'.  D.Z.Z.Z.V %           ;.`.`.`.`.`.`.`.`.`.`.F         G S.Z.Z.Z.S.j.  ",
"[.[.[.[.[.[.[.[.[.[.[.[.[.[.[.[.[.[.  R S.Z.Z.Z.Z.=.u ).  S.Z.S.Z.~.`.`.8.          0.`.`.`.`.`.`.`.y         t   N.Z.Z.S.Z.N.  ",
"[.[.[.[.[.[.[.[.[.[.[.[.[.[.[.[.[.[.[.O   p.Z.Z.Z.C.  '.. S.Z.Z.A.`.`.`.`.].=       = ( Q.T.].`.`.P.        Q.`.: c.Z.Z.Z.Z.D.  ",
"[.[.[.[.[.[.[.[.[.[.[.[.[.[.[.[.[.[.[.[.[.F.Z.Z.S.S.' _ . D.Z.S._.`.`.`.` @       = + 5 o z   + d J.      J ].`.7.{ Z.Z.Z.Z.S.  ",
"[.[.[.[.[.[.[.[.[.[.[.[.[.[.[.[.[.[.[.[.[.[.A.D.Z.Z.c.>   S.Z.Z.`.`.].6         6.].  Y.B.Y.Y.B.| L 8.      @ A ~.a S.Z.Z.S.b.  ",
"[.[.[.[.[.[.[.[.[.[.[.[.[.[.[.[.[.[.[.[.[.[.[.[.Z.S.S.D.  D.Z.W.`.`.y       A ~.'.].  W.Y.Y.Y.Y.5 K.`.R.^       3.& S.Z.Z.Z.g.  ",
"[.[.[.[.[.[.[.[.[.[.[.[.[.[.[.[.[.[.[.[.[.[.[.[.[.[.A.Z.  D.C.`.`.`.=     0.'.`.`.].  Y.Y.Y.Y.V.@ '.`.`.`.Q. .      S.Z.Z.Z.$.[.",
"[.[.[.[.[.[.[.[.[.[.[.[.[.[.[.[.[.[.[.[.[.[.[.[.[.[.[.[.. D.`.`.`.`.T.A Q.`.`.`.`.'.9.Y.U.Y.Y.9 L `.`.`.`.`.'.R.~.  Z.Z.Z.Z.c.[.",
"[.[.[.[.[.[.[.[.[.[.[.[.[.[.[.[.[.[.[.[.[.[.[.[.[.[.[.[.[.].`.`.`.`.`.].`.`.`.`.`.`.`.`./.(./.w.'.`.`.`.`.`.`.`.].. Z.Z.Z.F.[.[.",
"[.[.[.[.[.[.[.[.[.[.[.[.[.[.[.[.[.[.[.[.[.[.[.[.[.[.[.[.[.[.].`.`.`.`.`.`.`.`.'.`.'.`.`.`.`.`.`.`.`.`.`.`.`.`.`.`.2 D.Z.D.[.[.[.",
"[.[.[.[.[.[.[.[.[.[.[.[.[.[.[.[.[.[.[.[.[.[.[.[.[.[.[.[.[.[.[.[.`.].:._ _ ` ` +.;.:.,.4.q.G.L.R.~.^.^.~.E.J.8.:.B { D.[.[.[.[.[.",
"[.[.[.[.[.[.[.[.[.[.[.[.[.[.[.[.[.[.[.[.[.[.[.[.[.[.[.[.[.[.[.[.[.[.L _ = g j j h h f   u 4                     [.[.[.[.[.[.[.[.",
"[.[.[.[.[.[.[.[.[.[.[.[.[.[.[.[.[.[.[.[.[.[.[.[.[.[.[.[.[.[.[.[.[.  Q.`.D $ t.t.t.y.i / ].4.@ [.[.[.[.[.[.[.[.[.[.[.[.[.[.[.[.[.",
"[.[.[.[.[.[.[.[.[.[.[.[.[.[.[.[.[.[.[.[.[.[.[.[.[.[.[.[.[.[.[.[.[.  `.`.B & i o.X., C ].].y [.[.[.[.[.[.[.[.[.[.[.[.[.[.[.[.[.[.",
"[.[.[.[.[.[.[.[.[.[.[.[.[.[.[.[.[.[.[.[.[.[.[.[.[.[.[.[.[.[.[.[.[.6 `.`.A N e % @ + ].`.`.  [.[.[.[.[.[.[.[.[.[.[.[.[.[.[.[.[.[.",
"[.[.[.[.[.[.[.[.[.[.[.[.[.[.[.[.[.[.[.[.[.[.[.[.[.[.[.[.[.[.[.[.[.7.`.`.^ v Q !   K.`.`.6.  [.[.[.[.[.[.[.[.[.[.[.[.[.[.[.[.[.[.",
"[.[.[.[.[.[.[.[.[.[.[.[.[.[.[.[.[.[.[.[.[.[.[.[.[.[.[.[.[.[.[.[.= L.`.`./ c Q e / '.`.].B [.[.[.[.[.[.[.[.[.[.[.[.[.[.[.[.[.[.[.",
"[.[.[.[.[.[.[.[.[.[.[.[.[.[.[.[.[.[.[.[.[.[.[.[.[.[.[.[.[.[.[.[.  Q.`.`.D b Q   `.`.`.`.  [.[.[.[.[.[.[.[.[.[.[.[.[.[.[.[.[.[.[.",
"[.[.[.[.[.[.[.[.[.[.[.[.[.[.[.[.[.[.[.[.[.[.[.[.[.[.[.[.[.[.[.[.+ Q.`.`.B N 7 -.`.`.`.:.  [.[.[.[.[.[.[.[.[.[.[.[.[.[.[.[.[.[.[.",
"[.[.[.[.[.[.[.[.[.[.[.[.[.[.[.[.[.[.[.[.[.[.[.[.[.[.[.[.[.[.[.[.+ !.`.`.t U   ).`.`.].+ [.[.[.[.[.[.[.[.[.[.[.[.[.[.[.[.[.[.[.[.",
"[.[.[.[.[.[.[.[.[.[.[.[.[.[.[.[.[.[.[.[.[.[.[.[.[.[.[.[.[.[.[.[.+ !.`.`.| b :.`.`.`.<.  [.[.[.[.[.[.[.[.[.[.[.[.[.[.[.[.[.[.[.[.",
"[.[.[.[.[.[.[.[.[.[.[.[.[.[.[.[.[.[.[.[.[.[.[.[.[.[.[.[.[.[.[.[.@ I.[.[.[.[.[.[.`.].  [.[.[.[.[.[.[.[.[.[.[.[.[.[.[.[.[.[.[.[.[.",
"[.[.[.[.[.[.[.[.[.[.[.[.[.[.[.[.[.[.[.[.[.[.[.[.[.[.[.[.[.[.[.[.[.[.[.[.[.[.[.[.[.+ [.[.[.[.[.[.[.[.[.[.[.[.[.[.[.[.[.[.[.[.[.[.",
"[.[.[.[.[.[.[.[.[.[.[.[.[.[.[.[.[.[.[.[.[.[.[.[.[.[.[.[.[.[.[.[.[.[.[.[.[.[.[.[.[.[.[.[.[.[.[.[.[.[.[.[.[.[.[.[.[.[.[.[.[.[.[.[.",
"[.[.[.[.[.[.[.[.[.[.[.[.[.[.[.[.[.[.[.[.[.[.[.[.[.[.[.[.[.[.[.[.[.[.[.[.[.[.[.[.[.[.[.[.[.[.[.[.[.[.[.[.[.[.[.[.[.[.[.[.[.[.[.[.",
"[.[.[.[.[.[.[.[.[.[.[.[.[.[.[.[.[.[.[.[.[.[.[.[.[.[.[.[.[.[.[.[.[.[.[.[.[.[.[.[.[.[.[.[.[.[.[.[.[.[.[.[.[.[.[.[.[.[.[.[.[.[.[.[.",
"[.[.[.[.[.[.[.[.[.[.[.[.[.[.[.[.[.[.[.[.[.[.[.[.[.[.[.[.[.[.[.[.[.[.[.[.[.[.[.[.[.[.[.[.[.[.[.[.[.[.[.[.[.[.[.[.[.[.[.[.[.[.[.[.",
"[.[.[.[.[.[.[.[.[.[.[.[.[.[.[.[.[.[.[.[.[.[.[.[.[.[.[.[.[.[.[.[.[.[.[.[.[.[.[.[.[.[.[.[.[.[.[.[.[.[.[.[.[.[.[.[.[.[.[.[.[.[.[.[.",
"[.[.[.[.[.[.[.[.[.[.[.[.[.[.[.[.[.[.[.[.[.[.[.[.[.[.[.[.[.[.[.[.[.[.[.[.[.[.[.[.[.[.[.[.[.[.[.[.[.[.[.[.[.[.[.[.[.[.[.[.[.[.[.[.",
"[.[.[.[.[.[.[.[.[.[.[.[.[.[.[.[.[.[.[.[.[.[.[.[.[.[.[.[.[.[.[.[.[.[.[.[.[.[.[.[.[.[.[.[.[.[.[.[.[.[.[.[.[.[.[.[.[.[.[.[.[.[.[.[.",
"[.[.[.[.[.[.[.[.[.[.[.[.[.[.[.[.[.[.[.[.[.[.[.[.[.[.[.[.[.[.[.[.[.[.[.[.[.[.[.[.[.[.[.[.[.[.[.[.[.[.[.[.[.[.[.[.[.[.[.[.[.[.[.[.",
"[.[.[.[.[.[.[.[.[.[.[.[.[.[.[.[.[.[.[.[.[.[.[.[.[.[.[.[.[.[.[.[.[.[.[.[.[.[.[.[.[.[.[.[.[.[.[.[.[.[.[.[.[.[.[.[.[.[.[.[.[.[.[.[.",
"[.[.[.[.[.[.[.[.[.[.[.[.[.[.[.[.[.[.[.[.[.[.[.[.[.[.[.[.[.[.[.[.[.[.[.[.[.[.[.[.[.[.[.[.[.[.[.[.[.[.[.[.[.[.[.[.[.[.[.[.[.[.[.[."
};
