/* XPM */
static char *result[] = {
/* columns rows colors chars-per-pixel */
"64 64 206 2 ",
"   c #020202",
".  c #060609",
"X  c #080709",
"o  c #06090A",
"O  c #0B0B0C",
"+  c #110E0E",
"@  c #0C0E11",
"#  c #110F12",
"$  c #180F10",
"%  c #0E1113",
"&  c #131315",
"*  c #191616",
"=  c #161619",
"-  c #18171A",
";  c #141B1C",
":  c #1B1A1C",
">  c #1A1817",
",  c #251C1C",
"<  c #39191B",
"1  c #171D21",
"2  c #1D1E22",
"3  c #201F23",
"4  c #1C2326",
"5  c #1E2428",
"6  c #1D282B",
"7  c #232225",
"8  c #24252A",
"9  c #29272C",
"0  c #22292E",
"q  c #2B2A2C",
"w  c #2A2726",
"e  c #262E32",
"r  c #2D2D32",
"t  c #312F34",
"y  c #2A3539",
"u  c #2E393D",
"i  c #293234",
"p  c #333236",
"a  c #35343A",
"s  c #39363D",
"d  c #3B393E",
"f  c #34393C",
"g  c #33302F",
"h  c #4A1F21",
"j  c #423E3E",
"k  c #4D2125",
"l  c #333D42",
"z  c #3E3B42",
"x  c #3D3742",
"c  c #413D44",
"v  c #4C3D44",
"b  c #5C3F47",
"n  c #6B3F42",
"m  c #3A474C",
"M  c #3B4B4F",
"N  c #364347",
"B  c #3E4F54",
"V  c #424045",
"C  c #4B4949",
"Z  c #54504E",
"A  c #414B52",
"S  c #4A4F56",
"D  c #425257",
"F  c #46575A",
"G  c #4B5D5F",
"H  c #5A5555",
"J  c #565659",
"K  c #504C4B",
"L  c #6D4247",
"P  c #794549",
"I  c #715357",
"U  c #4C5660",
"Y  c #4C5E64",
"T  c #535E6A",
"R  c #53646C",
"E  c #59676B",
"W  c #596571",
"Q  c #566B71",
"!  c #596D72",
"~  c #5E747A",
"^  c #5C7275",
"/  c #4F6165",
"(  c #646263",
")  c #666668",
"_  c #726D6C",
"`  c #61777D",
"'  c #787476",
"]  c #746F70",
"[  c #85474B",
"{  c #954D52",
"}  c #8F5456",
"|  c #AA4F55",
" . c #A44E55",
".. c #B44E52",
"X. c #A75155",
"o. c #BD5458",
"O. c #857F7F",
"+. c #A66C71",
"@. c #DD595A",
"#. c #C25E5B",
"$. c #ED5B5D",
"%. c #E8605E",
"&. c #DB5B60",
"*. c #E85E62",
"=. c #F35F64",
"-. c #DD6065",
";. c #ED6162",
":. c #F56366",
">. c #FC6264",
",. c #FE676A",
"<. c #FF6869",
"1. c #FB827F",
"2. c #6A7E84",
"3. c #637A82",
"4. c #6C848A",
"5. c #6E8A8F",
"6. c #75858A",
"7. c #738B93",
"8. c #7A959D",
"9. c #769196",
"0. c #6F8791",
"q. c #7E9AA2",
"w. c #8A8485",
"e. c #8A8587",
"r. c #8A9499",
"t. c #999798",
"y. c #928D8C",
"u. c #A19A9A",
"i. c #829EA5",
"p. c #9D9EA2",
"a. c #86A3AB",
"s. c #89A5AD",
"d. c #8DADB6",
"f. c #8BA6B1",
"g. c #91ADB5",
"h. c #8EB1B7",
"j. c #93B4BC",
"k. c #AAA3A3",
"l. c #A7A7AA",
"z. c #B3ABAB",
"x. c #AAADB2",
"c. c #AEB1B6",
"v. c #B9B6B7",
"b. c #C68D94",
"n. c #C5BEBD",
"m. c #D7B1B3",
"M. c #F1AFB3",
"N. c #DBC0BE",
"B. c #9ABCC5",
"V. c #97BAC4",
"C. c #9FC3CD",
"Z. c #A3C7CE",
"A. c #A1C7D0",
"S. c #A4CAD5",
"D. c #A8CCD6",
"F. c #ABD2DC",
"G. c #A7D1D9",
"H. c #B2D4DD",
"J. c #ADD8E2",
"K. c #B2DAE5",
"L. c #B3DEE9",
"P. c #B5E2EB",
"I. c #B9E3EE",
"U. c #BAE5F1",
"Y. c #BCEAF5",
"T. c #BEEEFB",
"R. c #B7E7F5",
"E. c #BEF1FD",
"W. c #CBC3C3",
"Q. c #C7C7CA",
"!. c #D4CACA",
"~. c #CBD1D5",
"^. c #DCD4D4",
"/. c #D5D5DA",
"(. c #C9CCD0",
"). c #EDC7CD",
"_. c #E4DBDC",
"`. c #E4DBDB",
"'. c #FBCECC",
"]. c #D9DCE2",
"[. c #DDE1E7",
"{. c #C2EEFB",
"}. c #C2F2FF",
"|. c #C9F4FE",
" X c #C6F8FF",
".X c #CAFAFF",
"XX c #DBF4F8",
"oX c #D4EEF8",
"OX c #ECE3E3",
"+X c #E4E8EF",
"@X c #F5EAEB",
"#X c #E6EBF1",
"$X c #EBEEF5",
"%X c #E8EEF9",
"&X c #F6EFF2",
"*X c #EBF0F6",
"=X c #EEF3F9",
"-X c #EBFAFF",
";X c #FFF3F3",
":X c #FFF9F7",
">X c #F1F6FB",
",X c #F4FBFD",
"<X c #FFFCFC",
"1X c #F4F2F6",
"2X c #FAF0EF",
"3X c None",
/* pixels */
"3X3X3X3X3X3X3X3X3X3X3X3X3X3X3X3X3X3X3Xa.}.}.}.}.}.}.}.}.}.d.3X3X3X3X3X3X3X3X3X3X3X3X3X3X3X3XX % ^ I.}.}.}.}.}.}.Y.4.O 3X3X3X3X3X",
"3X3X3X3X3X3X3X3X3X3X3X3X3X3X3X3X3X3X3XO  X}.}.}.}.}.}.}.{.  3X3X3X3X3X3X3X3X3X3X3X3X3X3X3X3X3X3X3X  4. X}.}.}.}.}.}.}.Y   3X3X3X",
"3X3X3X3X3X3X3X3X3X3X3X3X3X3X3X3X3X3X3X  2.}.}.}.}.}.}.}.K.  3X3X3X3X3X3X3X3X3X3X3X3X3X3X3X3X3X3X3X3XX % Z.{.}.}.}.}.}.}.B.; 3X3X",
"3X3X3X3X3X3X3X3X3X3X3X3X3X3X3X3X3X3X3X3X  F.}.}.}.}.}.}.g.3X3X3X3X3X3X3X3X3X3X3X3X3X3X3X3X3X3X3X3X3X3X3X  9.}.}.}.}.}.}.}.|.N   ",
"3X3X3X3X3X3X3X3X3X3X3X3X3X3X3X3X3X3X3X3X3X% U.}.E.}.}. X% 3X3X3X3X3X3X3X3X3X3X3X3X3X3X3X3X3X3X3X3X3X3X3X3XX l T.{.}.}.}.}.}..XQ ",
"3X3X3X3X3X3X3X3X3X3X3X3X3X3X3X3X3X3X3X3X3X3X% P.}.}.}.T.  3X3X3X3X3X3X3X3X3X3XX   X   X 3X3X3X3X3X3X3X3X3X3X3X. I.}.}.}.}.}.{. X",
"3X3X3X3X3X3X3X3X3X3X3X3X3X3X3X3X3X3X3X3X3X3X3X  d. X}.F.  3X3X3XX X % 4 m ~ a.A.K.U.I.F.h.~ u & X X 3X3X3X3X3X3X  J.}.}.}.}.}.}.",
"3X3X3X3X3X3X3X3X3X3X3X3X3X3X3X3X3X3X3X3X3X3X3X3X  0 U.A.; Q N i.}..X X}.}.}.}.E.E.}.}.}.}.}.}.}..Xf.2 . 3X3X3X3X3X  G.}.}.}.}.}.",
"3X3X3X3X3X3X3X3X3X3X3X3X3X3X3X3X3X3X3X3X3X3X3X3X3X3XX 7.8.}.}.}.}.}.}.}.}.}.}.}.}.}.}.}.}.}.}.}.}.}.}.}.m X 3X3X3X3X  G.}.{.}.}.",
"3X3X3X3X3X3X3X3X3X3X3X3X3X3X3X3X3X3X3X3X3X3X3X  ! }.}.}.}.}.}.}.}.}.}.}.}.}.}.}.}.}.}.}.}.}.}.}.}.}.}.}.{. X^ ! 3X3X3X  J.}.}.}.",
"3X3X3X3X3X3X3X3X3X3X3X3X3X3X3X3X3X3X3X3X@   4.}.}.}.}.}.E.}.}.}.}.}.}.}.E.}.}.}.}.}.}.}.}.}.}.}.}.}.}.}.}.}.}.}.}.{.3X3X. Y.}.}.",
"3X3X3X3X3X3X3X3X3X3X3X3X3X3X3X3X3X3X3X  7.}.}.}.}.}.}.}.}.}.}.}.}.}.}.}.}.}.}.}.}.}.}.}.}.}.}.}.}.}.}.}.}.}.}.}.}.}.}.{.2.; |.}.",
"3X3X3X3X3X3X3X3X3X3X3X3X3X3X3X3X3X  Y {.}.}.}.}.}.}.}.}.}.}.}.}.}.}.}.}.}.}.}.}.}.}.}.}.}.}.}.}.{.}.}.}.E.}.}.}.}.{.}.}.}.^ A  X",
"3X3X3X3X3X3X3X3X3X3X3X3X3X3X3XX 4 K.}.}.}.}.}.P.. }.}.}.}.}.}.}.}.}.}.}.}.}.}.}.}.}.}.}.}.E.I.P.}.}.}.}.}.}.}.}.}.}.}.}.}. Xu 8.",
"3X3X3X3X3X3X3X3X3X3X3X3X3X3X  a.}.}.}.}.}.E.K.  h.}.}.}.}.}.}.}.}.}.}.}.}.}.}.}.}.}.}.}.}.}.S.  B.}.{.}.}.}.}.}.}.}.}.}.}.}.{.O ",
"3X3X3X3X3X3X3X3X3X3X3X3XO ; L.}.}.}.}.}.}.F.  D.}.}.}.}.}.}.}.}.}.}.}.}.}.}.}.}.}.}.}.}.}.}.}.L.. a.E.}.}.}.}.}.}.}.}.}.}.}.}.d.",
"3X3X3X3X3X3X3X3X3X3X3X  Q }.{.}.}.}.E.}.K.  G.}.}.}.}.}. X{.T.d. X X}.}.}.}.}.}.}.}.}.}.}.}.}.}.Y.  B.}.}.}.}.}.}.}.}.}.}.}.}.}.",
"3X3X3X3X3X3X3X3X3X3X  a. X}.}.}.}.}.{.I.  D.}.}.}.}.}.E.B XX@X_   e A..X}.}.}.}.}.}.}.}.}.}.}.}.}.U.  {.}.}.}.}.}.}.}.}.}.}.}.}.",
"3X3X3X3X3X3X3X3X3X  B.}.{.}.}.}.}.}.}.  A.}.}.}.}. XY   c.;X;X:X:Xn.g & q..X}.}.}.}.}.}.}.}.}.}.}.}.S.O }.}.}.}.}.}.}.}.}.}.}.}.",
"3X3X3X3X3X3X3X3X  C.}.}.}.}.}.}.}..XO h.}.}.}. Xf.. w.:X;X;X;X;X;X;X<X^.H O q..X}.}.}.}.}.}.}.}.}.}.}.Q Q }.}.}.}.}.}.}.}.}.}.}.",
"3X3X3X3X3X3X3X  d.{.E.}.}.}.}.{..Xe 0. X}.E.{.l w `.;X;X;X;X;X;X;X;X;X;X:X`.C ; A. X{.}.}.}.}.}.}.}.{.{.  T.{.}.}.}.}.}.}.}.E.}.",
"3X3X3X3X3X3XX ` }.}.}.}.}.}.}. X! F |.}. XV.O t.<X;X;X;X;X;X;X;X;X;X;X;X:X:X<XW.& F  X}.}.}.}.}.}.}.}.}.j.u }.}.}.}.}.}.}.}.}.}.",
"3X3X3X3X3X3Xe |.}.}.}.}.}.}.}.h.;  X{..X4.* ^.2X;X;X;X;X;X;X;X;X;X;X;X;Xw 6.( :X<XO.. V. X}.}.}.}.}.}.}.{.o U.}.}.}.}.}.}.}.}.}.",
"3X3X3X3X3XO .X}.}.}.}.}.}.}.Y.  I.}. XN j ;Xn.!.!.;X;X;X;X;X;X;X;X;X;X, a..Xy z.;X;X^.= `  X}.}.}.}.}.}.}.d.B }.}.}.}.}.}.}.}.}.",
"3X3X3X3X  i.}.}.}.}.}.}.}. X; j.}.Y.& ] <X<XX H.& z.;X;X;X;X;X;X;X;X:X& s.V.; N.;X;X;X<XK 8 P.}.}.}.}.}.}.}.  Y.}.}.}.}.}.}.}.}.",
"3X3X3X3Xe  X}.}.}.}.}.}.}.5.A }.P.. l.:X;XOX6 .Xj.a :X;X;X;X;X;X;X;X;XOXc j z.1X;X;X;X;X:Xk.X G.}.}.}.}.}.}.G f.E.}.}.}.}.}.}.}.",
"3X3X3XX I.}.}.}.}.}.}.}.Y.X R.P.X W.;X;X;X:X7   $ k.;X;X;X;X;X;X;X;X;X;X;X;X;X;X;X;X;X;X;X2X^.O B.}.}.}.}.}.|.o }.}.}.}.}.}.}.}.",
"3X3X3XM  X}.}.}.}.}.Y.D.y 8.I.. ^.;X;X;X;X;X;X<X:X;X;X;X;X;X;X;X;X;X;X;X;X;X;X;X;X;X;X;X;X;X;X@X& i.}.{.}.}.}.@ P.}.}.}.E.}.}.}.",
"3X3X  |.}.}.}.}.}.4.  & O @   t.OX:X2X2X;X;X;X;X:X;X;X;X;X;X;X;X;X;X;X;X;X;X;X;X;X;X;X;X;X;X;X;X;X& 0.}.}.}.{.E s.}.}.}.}.}.}.}.",
"3X3XA }.}.}.}.E.@ M }.8 K.= n.) X Z @X2X;X;X;X;X;X;X;X;X;X;X;X;X;X;X;X;X;X;X;X;X;X;X;X;X;X;X;X;X;X;X* 7.}.}.}.{.; }.}.}.}.}.}.}.",
"3X  K.}.}.}.}.m ! XX,X,X,X,X,X*X=Xx.  j 2X;X;X;X;X;X;X;X;X;X;X;X;X;X;X;X;X;X;X;X;X;X;X;X;X;X;X;X;X;X;XO s.}.}.}.o R.}.}.}.}.}.}.",
"3Xl  X}.}.}.G.& E.,X,XXX].,X,X,X1X*X*XZ.  w ;X;X;X;X;X;X;X;X;X;X;X;X;X;X;X;X;X;X;X;X;X;X;X;X;X;X;X;X;X2XX Z.E.}.0 A.}.}.}.}.}.}.",
"  8.E.}.E.}.1 L.E.R.. %X*X*X*X,X,X1X*X*X%X(.  : ;X;X;X:X;X;X;X;X;X;X;X;X;X;X;X;X;X;X;X;X;X;X;X;X;X;X;X;X&X  U.}.0.7.}.}.}.}.}.}.",
"O .X}.}.}.L.O E.E.4.r.$X%X*X*X*X*X>X=X=X=X=X]     X _ :X;X;X;X;X;X;X;X;X;X^.!.OX:X:X:X;X;X;X;X;X;X;X;X;X;X@X. R.}.4  X}.}.}.}.}.",
"/ }.}.}.}.B.M T.E.o |.$X*X*X=X*X*X,Xr.-   = v./.+X[.l.    : :X;X;X;X;X;X:Xy.e.( 7     & q n.:X;X;X;X;X;X;X;X_.4 .X  Y.}.}.}.}.}.",
"q.}.}.}.}.4.9.E.R.y % $X*X*X>Xv.4   e.~.+X=X*X*X*X*X=X=X#X].;X;X;X;X;X;X;X;X;X;X:X;X2X_.!.'   : _ <X;X;X;X;X;Xn.B.4 H.}.}.}.}.}.",
"U.}.}.}.}.! V.E.L.K.@ %X%Xc.& j Q.=X=X$X*X*X*X*X*X*X*X*X*X*X;X;X;X;X;X;X;X;X;X;X;X;X;X;X;X:X;XN.}   g m.<X:X;X;X/.N h.}.}.}.}.}.",
" X}.E.}.}.2.q.E.E.S.m =XC , b.$X*X*X*X*X$X*X*X*X%X*X*X*X*X1X;X;X;X;X;X;X;X;X;X;X;X;X;X;X;X;X;X;X;XM.#.P 1.;X;X;X;Xy.5.E.}.}.E.}.",
"}.}.}.}.}.j.B E.E.5.l.b.+.M.$X*X*X*X*X*X*X*X*X*X*X*X*X*X%X;X;X;X;X;X;X;X;X;X;X;X;X;X;X;X;X;X;X;X;X;X;X'.'.;X;X;X;XOXN  X}.}.}.}.",
"}.}.}.}.E.L.@ E.E.l /.).).$X$X*X*X*X*X*X*X*X*X*X*X*X*X=X( <X;X;X;X;X;X;X;X;X;X;X;X;X;X;X;X;X;X;X;X;X;X;X;X;X;X;X;X<XX }.}.}.}.}.",
"}.}.}.}.}.}.0 S.E.% #X*X*X*X*X*X*X*X*X*X*X=X$X*X*X*X*X].@ :X;X;X;X;X;X;X;X;X;X;X;X;X;X;X;X;X;X;X;X;X;X;X;X;X;X;X;X-XO R.}.}.}.}.",
"}.}.}.}.}.}.J.O }.. *X*X*X*X*X*X*X*X*X*X*X$X*X*X*X*X*Xt._ ;X;X;X;X;X;X;X;X;X;X;X;X;X;X;X;X;X;X;X;X;X;X;X;X;X;X;X;X|.8 G.}.}.}.}.",
"}.}.}.}.}.}.}./ R   *X*X*X*X*X*X*X*X*X%X*X*X*X*X*X*X*X  <X;X;X;X;X;X;X;X;X;X;X;X;X;X;X<Xv.] ( O.`.:X;X;X;X;X;X;X1X}.m j.}.}.}.}.",
"}.}.}.}.}.}.}. X4   =X*X*X*X*X*X=X,X,X=X*X$X$X*X$X=Xc.a ;X:X:X<X<X:X;X;X;X;X;X;X;X<Xz.X O 7 t 2   Z :X;X;X:X:X;X{.}.R 9.}.}.}.}.",
"}.}.}.}.}.}.}.}.}.. ) =X$X=X].t.J 9 9 ( p.+X=X*X=X].  <XOXu.H 7 = w e.W.<X;X;X;X<XK . s c z z z z = ' :X:XC d |.}.}.8.3.}.}.}.}.",
"}.}.}.}.}.}.}.}.}.2 J . x.2.  6 M U U M 4   J ].c.  k.Z   = t s z s 3 . * v.:X:Xq : c z z z z z z s + ;Xw.= * r.}.}.D.D  X}.}.}.",
"}.}.}.}.}.}.}.}.{.s.( OX+   l S T W W W T U :   > !.  7 c c z z z z z z s   z._ > z z z z c z z c s + _.  z z @ }.}.}.8  X}.}.}.",
"}.}.}.}.}.}.}.}.{.{.u +   3 O             O : q d O.s z c c c c z z z x s a   s 8 q 8 7 2 - & + - a X a   z z   {.}..XO  X}.}.}.",
"E.}.}.}.}.}.}.}.u Z.= e X 4 & + O X X X   X O =   = 2 3 : = # X .       X X   @   - 3 9 r a a s c O a s O z d 4 {.}..X. }.}.}.}.",
"}.}.}.}.}.}.}.E.  8 p p   X c c V V c c c j d : &   r r t p s s z c c c z c   c X r z z z z z z t X c a & z # V.}.{. XO U.}.}.}.",
"}.}.}.}.}.}.}.P.%   d z z     s c V V V V V V   z w # z c c z z z z z z z q # c s   z z z z z z   d c t 2 x X T.}.}. X; J.}.}.}.",
"}.}.}.}.}.}.}.A.m o z z z   s   3 N V V c V 9 = z c   s d z z z z z z z c   a z z 7 & c z z z : = z z 9 w   F.}.}.}.}.8 F.}.}.}.",
"}.}.}.}.}.}.}.9.8.^ 8 z p @ d V :   x c V V O s z z t X z z c z z z z z # 7 c z z c X t z z p . c z z = *   A.}.}.}.}.y S.}.}.}.",
"}.}.}.}.}.}.}.D K.{.  x @ a c d z s   9 V z   c z z c = 3 z d z z z c : O z z z z z a X c z X p z c d X   : j.}.}.}.}.N C.E.}.}.",
"}.}.}.}.}.}.}.1 }.}.D.X   d z z z z z @ : p * z z z z d   c z z z z t   z z z z z z c O a r @ z z z s   z - B.}.}.}.}.F C.}.}.}.",
"}.}.}.}.}.}.}.  |.}.}.P.X z c d z z z z & & @ z z z z z r O z z z z   s z z c z z z z 7 : & q z z z a O c X Y.{.}.}.}./ C.}.}.}.",
"}.}.}.}.}.}.T.  .X}.}.}.N + z z z z z z z @   q z z z z z   z z z X r z z z z z z z z 9 =   c z z z   z : . {.E.}.}.E.Q G.}.}.}.",
"}.}.}.}.}.}.T.   X}.}.}.}.a.  O & 7 w r 3 # O o % p V z V 8 : x c   z z z z z z z z z : 7 8   X X X 2.M ^ T.}.}.}.}.{.4.L.{.}.}.",
"}.}.}.}.}.}.T.  .X}.}.}.}.}.}.4 8 8 2 7 8 r x x 0 $ < k h < X.&.P   j z x c z z z c 3 X c z x a r & .X}.}.}.}.}.}.}.}.Y.}.E.}.}.",
"}.}.}.}.}.}.T.  |.}.}.}.}.}.A.X z z z z c s X.&.>.<.<.:.:.:.>.;.,.$.o.n r a r 2 &   - d c z z z z ; 7.{.}.}.}.}.E.}.}.}.}.}.}.}.",
"}.}.}.}.}.}.{.  |.}.}.}.}. X& p z z z z z { *.[ b v d x l x L >.c L ..>.@.h = 3 r d c z z z z z d s X |.}.}.}.}.}.}.}.}.}.}.}.}.",
"}.}.}.}.}.}.}.@  X}.}.}.{.j.@ z z z z z z | | x z z z d x x @.>.n z x c { >.| z z z z z z z z z c c : ~ {.}.}.}.}.}.}.}.}.}.}.}.",
"}.}.}.}.}.}.}.l U.}.}.}.}.% s z c z z z z  .o.z z z z x P %.>.&.:.x c x c K >.L d c z z z z z z z z z    X}.}.}.}.}.}.}.}.}.}.}.",
"}.}.}.}.}.}. X4.f.{.}.}.B.& c z z z z z c P ;.l z c P *.:...=.P >.L s c c z [ v c d z z c z z z z z z 7 R }.}.}.}.E.}.}.}.}.}.}."
};
