/* XPM */
static char *result[] = {
/* columns rows colors chars-per-pixel */
"64 64 105 2 ",
"   c #443B35",
".  c #4B3D36",
"X  c #4C3F39",
"o  c #503F36",
"O  c #4D4236",
"+  c #4D433A",
"@  c #514237",
"#  c #53463C",
"$  c #54493F",
"%  c #5A493E",
"&  c #504740",
"*  c #554B43",
"=  c #5A4E45",
"-  c #5E5246",
";  c #57514B",
":  c #5D534B",
">  c #5E5653",
",  c #604D40",
"<  c #625246",
"1  c #63554C",
"2  c #695748",
"3  c #64584E",
"4  c #6A5A4C",
"5  c #625751",
"6  c #655A53",
"7  c #6B5D54",
"8  c #665E5B",
"9  c #6A5E59",
"0  c #705F53",
"q  c #6E6056",
"w  c #66625E",
"e  c #6D635B",
"r  c #6F685D",
"t  c #726256",
"y  c #73655C",
"u  c #79675D",
"i  c #75695E",
"p  c #7A6A5D",
"a  c #6D6660",
"s  c #6E6964",
"d  c #726760",
"f  c #756B62",
"g  c #7B6D64",
"h  c #746E6A",
"j  c #7E6F68",
"k  c #7C7066",
"l  c #7E7169",
"z  c #7E7872",
"x  c #806F67",
"c  c #827265",
"v  c #877867",
"b  c #82746B",
"n  c #89766A",
"m  c #85796E",
"M  c #8B7B6C",
"N  c #917F6F",
"B  c #877770",
"V  c #857A72",
"C  c #8B7D73",
"Z  c #887E78",
"A  c #917E74",
"S  c #90816E",
"D  c #8E8173",
"F  c #86817A",
"G  c #8D847B",
"H  c #938474",
"J  c #988677",
"K  c #93857A",
"L  c #98867D",
"P  c #94897D",
"I  c #9B8B7C",
"U  c #8F8881",
"Y  c #968B83",
"T  c #9C8D82",
"R  c #978D88",
"E  c #9E9185",
"W  c #9C938C",
"Q  c #9F9390",
"!  c #A08F85",
"~  c #A39284",
"^  c #A4948B",
"/  c #A9978F",
"(  c #AA9A8C",
")  c #B09F8E",
"_  c #A69791",
"`  c #AA9790",
"'  c #A29994",
"]  c #AB9B93",
"[  c #A3A095",
"{  c #AFA197",
"}  c #ADA49B",
"|  c #B1A195",
" . c #B4A59B",
".. c #B5AA9C",
"X. c #BBAB9C",
"o. c #B4AEA5",
"O. c #BAAEA2",
"+. c #BCB2A7",
"@. c #BBB2AA",
"#. c #C1B6AB",
"$. c #C6BAAF",
"%. c #C2B7B0",
"&. c #C6BCB4",
"*. c #C9BFB5",
"=. c None",
/* pixels */
"=.=.=.=.=.=.=.=.=.=.=.=.=.=.=.=.=.=.=.=.=.=.=.=.=.=.=.=.=.=.=.=.=.=.=.=.=.=.=.=.=.=.=.=.=.=.=.=.=.=.=.=.=.=.=.=.=.=.=.=.=.=.=.=.",
"=.=.=.=.=.=.=.=.=.=.=.=.=.=.=.=.=.=.=.=.=.=.=.=.=.=.=.=.=.=.=.=.=.=.=.=.=.=.=.=.=.s s a =.=.=.=.=.=.=.=.=.=.=.=.=.=.=.=.=.=.=.=.",
"=.=.=.=.=.=.=.=.=.=.=.=.=.=.=.=.=.=.=.=.=.=.=.=.=.=.=.=.=.=.=.=.=.=.=.=.=.=.=.=.r r r q =.=.=.=.=.=.=.=.=.=.=.=.=.=.=.=.=.=.=.=.",
"=.=.=.=.=.=.=.=.=.=.=.=.=.=.=.=.=.=.=.=.=.=.=.=.=.=.=.=.=.=.=.=.=.=.=.=.=.=.=.e r e q 4 =.=.=.=.=.=.=.=.=.=.=.=.=.=.=.=.=.=.=.=.",
"=.=.=.=.=.=.=.=.=.=.=.=.=.=.=.=.=.a k r =.=.=.=.=.=.=.=.=.=.=.=.=.=.=.=.=.5 6 0 t q q q =.=.=.=.=.=.=.=.=.=.=.=.=.=.=.=.=.=.=.=.",
"=.=.=.=.=.=.=.=.=.=.=.=.=.=.=.=.=.f r r 6 ; & =.: a Y } @.@.@.' U h d 6 6 4 4 7 q q 4 % 3 =.=.=.=.=.=.=.=.=.=.=.=.=.=.=.=.=.=.=.",
"=.=.=.=.=.=.=.=.=.=.=.=.=.=.=.=.=.k s s e 3 1 1 e V } %.&.&.&.} R Z j g 9 0 7 4 4 3 4 % 6 =.=.=.=.=.=.=.=.=.=.=.=.=.=.=.=.=.=.=.",
"=.=.=.=.=.=.=.=.=.=.=.=.=.=.=.=.=.h s r e q 9 6 q C o.%.&.&.%.} K Z x x g 0 0 7 4 4 4 - 6 =.=.=.=.=.=.=.=.=.=.=.=.=.=.=.=.=.=.=.",
"=.=.=.=.=.=.=.=.=.=.=.=.=.=.=.=.=.=.a > 6 6 5 5 7 C  .%.*.&.#.] B y y y u p y t 4 4 4 < =.=.=.=.=.=.=.=.=.=.=.=.=.=.=.=.=.=.=.=.",
"=.=.=.=.=.=.=.=.=.=.=.=.=.=.=.=.=.=.a > > : 1 = = f ^ +.$.#.O.T q * % , t x p u u t t 0 =.=.=.=.=.=.=.=.=.=.=.=.=.=.=.=.=.=.=.=.",
"=.=.=.=.=.=.=.=.=.=.=.=.=.=.=.=.=.=.=.> ; - = # . - K O.#.#. .K 1 o o * 0 c c c c v c i =.=.=.=.=.=.=.=.=.=.=.=.=.=.=.=.=.=.=.=.",
"=.=.=.=.=.=.=.=.=.=.=.=.=.=.=.=.=.=.=.> ; - * X X - C |  .| { Y u 0 0 u M S M M M M C =.=.=.=.=.=.=.=.=.=.=.=.=.=.=.=.=.=.=.=.=.",
"=.=.=.=.=.=.=.=.=.=.=.=.=.=.=.=.=.=.=.8 > 5 4 9 y b R ^ ! ! ^ ` ` ` ( ( / I S M v M =.=.=.=.=.=.=.=.=.=.=.=.=.=.=.=.=.=.=.=.=.=.",
"=.=.=.=.=.=.=.=.=.=.=.=.=.=.=.=.=.=.=.> > 9 B P T ^ ! A B n A `  . .| | ( ~ J S S D =.=.=.=.=.=.=.=.=.=.=.=.=.=.=.=.=.=.=.=.=.=.",
"=.=.=.=.=.=.=.=.=.=.=.=.=.=.=.=.=.=.=.5 5 g K ` ] ] E B y 9 b Y / ` / ~ ^ ^ I I H P =.=.=.=.=.=.=.=.=.=.=.=.=.=.=.=.=.=.=.=.=.=.",
"=.=.=.=.=.=.=.=.=.=.=.=.=.=.=.=.=.=.=.8 a l R _ ] ^ P j 7 4 g n A L ! ! I I I I I I =.=.=.=.=.=.=.=.=.=.=.=.=.=.=.=.=.=.=.=.=.=.",
"=.=.=.=.=.=.=.=.=.=.=.=.=.=.=.=.=.=.=.s h Z Y T R K b y 7 7 e y x b H H J I I I I E =.=.=.=.=.=.=.=.=.=.=.=.=.=.=.=.=.=.=.=.=.=.",
"=.=.=.=.=.=.=.=.=.=.=.=.=.=.=.=.=.=.=.=.z G R R K C c i t t y i p c b M S H H J I Y =.=.=.=.=.=.=.=.=.=.=.=.=.=.=.=.=.=.=.=.=.=.",
"=.=.=.=.=.=.=.=.=.=.=.=.=.=.=.=.=.=.=.=.V G Y Y K B l g g p d p g x k v m M C H H D =.=.=.=.=.=.=.=.=.=.=.=.=.=.=.=.=.=.=.=.=.=.",
"=.=.=.=.=.=.=.=.=.=.=.=.=.=.=.=.=.=.=.=.F P Y Y P C b g d f p p p p l c m m C D m g t =.=.=.=.=.=.=.=.=.=.=.=.=.=.=.=.=.=.=.=.=.",
"=.=.=.=.=.=.=.=.=.=.=.=.=.=.=.=.=.=.=.=.F G U U K C c g g d i y p i p g c b C m c q < ; =.=.=.=.=.=.=.=.=.=.=.=.=.=.=.=.=.=.=.=.",
"=.=.=.=.=.=.=.=.=.=.=.=.=.=.=.=.=.=.=.R G G K K K B g g i y y y p i p g c m m b g q - = ; > =.=.=.=.=.=.=.=.=.=.=.=.=.=.=.=.=.=.",
"=.=.=.=.=.=.=.=.=.=.=.=.=.=.=.=.=.=.Q Q ^ ! R T A B g i 7 7 9 t t i g g l m b c i 6 - * * : 5 e f k h l b m V C V =.=.=.=.=.=.=.",
"=.=.=.=.=.=.=.=.=.=.=.=.=.=.=.=.=.' ' ] ] / ! L A b g t 7 9 y y d g k l c c g y 7 1 = & * * - 1 3 6 7 7 e t t u g l =.=.=.=.=.=.",
"=.=.=.=.=.=.=.=.=.=.=.=.=.=.=.=.=.Q ' ` / I A A n g y 0 7 e f g c b l l l i e 7 - = * * & $ # # % = - 1 2 2 4 0 t d =.=.=.=.=.=.",
"=.=.=.=.=.=.=.=.=.=.=.=.=.=.=.=.=.Q ^ T N n x 0 0 0 9 7 7 r g b b B m l l i 7 1 - * * & + O X X @ # - 1 1 1 7 q y =.=.=.=.=.=.=.",
"=.=.=.=.=.=.=.=.=.=.=.=.=.=.=.=.=.R Y C u 4 < = - - : 1 6 r f z V z V m z f q 1 - - * $ +       O % - 1 6 7 =.=.=.=.=.=.=.=.=.=.",
"=.=.=.=.=.=.=.=.=.=.=.=.=.=.=.=.=.Z B g 4 , % # # & * : 6 r k l V Z V V l f r q > ; * $ +       + = 1 7 =.=.=.=.=.=.=.=.=.=.=.=.",
"=.=.=.=.=.=.=.=.=.=.=.=.=.=.=.=.=.=.g 7 < % @ O + & = > q r k l m F F V z k s q 1 ; - * & + & & * : =.=.=.=.=.=.=.=.=.=.=.=.=.=.",
"=.=.=.=.=.=.=.=.=.=.=.=.=.=.=.=.=.=.h 6 < * # # $ & ; 6 e i k z m V V V l k s q : - - ; ; ; : ; =.=.=.=.=.=.=.=.=.=.=.=.=.=.=.=.",
"=.=.=.=.=.=.=.=.=.=.=.=.=.=.=.=.=.=.=.e 1 - = & $ = : 6 r i k z m V m l l l f r : ; ; : > > =.=.=.=.=.=.=.=.=.=.=.=.=.=.=.=.=.=.",
"=.=.=.=.=.=.=.=.=.=.=.=.=.=.=.=.=.=.=.=.7 1 - = * = 1 q r f k l b V l l l l k r 1 * * ; : =.=.=.=.=.=.=.=.=.=.=.=.=.=.=.=.=.=.=.",
"=.=.=.=.=.=.=.=.=.=.=.=.=.=.=.=.=.=.=.=.e 6 5 - - : 1 9 d h j b m V b j j l l f 1 - * : =.=.=.=.=.=.=.=.=.=.=.=.=.=.=.=.=.=.=.=.",
"=.=.=.=.=.=.=.=.=.=.=.=.=.=.=.=.=.=.=.=.=.6 5 1 : 1 7 y f h j b B n B j j b z k q > ; 6 =.=.=.=.=.=.=.=.=.=.=.=.=.=.=.=.=.=.=.=.",
"=.=.=.=.=.=.=.=.=.=.=.=.=.=.=.=.=.=.=.=.=.7 5 - : 5 e h j j j b b B l j l b b l i 7 6 =.=.=.=.=.=.=.=.=.=.=.=.=.=.=.=.=.=.=.=.=.",
"=.=.=.=.=.=.=.=.=.=.=.=.=.=.=.=.=.=.=.=.=.7 5 1 < 6 a j h j h j B B l j l l B b h r e =.=.=.=.=.=.=.=.=.=.=.=.=.=.=.=.=.=.=.=.=.",
"=.=.=.=.=.=.=.=.=.=.=.=.=.=.=.=.=.=.=.=.=.9 1 1 5 7 d h j j h j b B b l b b b b k i e =.=.=.=.=.=.=.=.=.=.=.=.=.=.=.=.=.=.=.=.=.",
"=.=.=.=.=.=.=.=.=.=.=.=.=.=.=.=.=.=.=.=.=.7 5 - 1 7 y g j j B b b b b j j b b b l i r =.=.=.=.=.=.=.=.=.=.=.=.=.=.=.=.=.=.=.=.=.",
"=.=.=.=.=.=.=.=.=.=.=.=.=.=.=.=.=.=.=.=.=.w 5 1 < 5 e d j x x x j b b l l b b n g i d =.=.=.=.=.=.=.=.=.=.=.=.=.=.=.=.=.=.=.=.=.",
"=.=.=.=.=.=.=.=.=.=.=.=.=.=.=.=.=.=.=.=.=.8 5 : 1 5 7 y d j j x b j l b c b b b g y d =.=.=.=.=.=.=.=.=.=.=.=.=.=.=.=.=.=.=.=.=.",
"=.=.=.=.=.=.=.=.=.=.=.=.=.=.=.=.=.=.=.=.=.=.6 > 1 1 5 9 u x j j j b j b l b b b g y y =.=.=.=.=.=.=.=.=.=.=.=.=.=.=.=.=.=.=.=.=.",
"=.=.=.=.=.=.=.=.=.=.=.=.=.=.=.=.=.=.=.=.=.=.6 1 1 1 1 7 y x x j j j j x c c c c x y a =.=.=.=.=.=.=.=.=.=.=.=.=.=.=.=.=.=.=.=.=.",
"=.=.=.=.=.=.=.=.=.=.=.=.=.=.=.=.=.=.=.=.=.=.8 1 1 1 1 7 d x j j j x j g g g b c u t d =.=.=.=.=.=.=.=.=.=.=.=.=.=.=.=.=.=.=.=.=.",
"=.=.=.=.=.=.=.=.=.=.=.=.=.=.=.=.=.=.=.=.=.=.8 1 1 5 1 7 y x j x b x j g g u x g y 7 d =.=.=.=.=.=.=.=.=.=.=.=.=.=.=.=.=.=.=.=.=.",
"=.=.=.=.=.=.=.=.=.=.=.=.=.=.=.=.=.=.=.=.=.=.9 1 1 5 1 4 0 f j j j j g g y y y t 0 4 e =.=.=.=.=.=.=.=.=.=.=.=.=.=.=.=.=.=.=.=.=.",
"=.=.=.=.=.=.=.=.=.=.=.=.=.=.=.=.=.=.=.=.=.=.9 6 4 1 1 0 9 y g g j j g f u 0 0 0 4 2 7 =.=.=.=.=.=.=.=.=.=.=.=.=.=.=.=.=.=.=.=.=.",
"=.=.=.=.=.=.=.=.=.=.=.=.=.=.=.=.=.=.=.=.=.=.9 7 1 1 5 4 9 y g g j j g u 0 4 4 2 3 < 6 =.=.=.=.=.=.=.=.=.=.=.=.=.=.=.=.=.=.=.=.=.",
"=.=.=.=.=.=.=.=.=.=.=.=.=.=.=.=.=.=.=.=.=.=.9 5 1 5 5 9 0 0 i g j g g d 7 4 2 2 2 < 3 =.=.=.=.=.=.=.=.=.=.=.=.=.=.=.=.=.=.=.=.=.",
"=.=.=.=.=.=.=.=.=.=.=.=.=.=.=.=.=.=.=.=.=.=.=.6 3 3 7 7 e t i g p c c t 0 2 2 2 2 2 3 k =.=.=.=.=.=.=.=.=.=.=.=.=.=.=.=.=.=.=.=.",
"=.=.=.=.=.=.=.=.=.=.=.=.=.=.=.=.=.=.=.=.=.=.=.6 7 7 7 7 7 t i g k c c c p p p p t q 7 i =.=.=.=.=.=.=.=.=.=.=.=.=.=.=.=.=.=.=.=.",
"=.=.=.=.=.=.=.=.=.=.=.=.=.=.=.=.=.=.=.=.=.=.=.r t 7 7 7 q y u g c v v v v c v c c p p l =.=.=.=.=.=.=.=.=.=.=.=.=.=.=.=.=.=.=.=.",
"=.=.=.=.=.=.=.=.=.=.=.=.=.=.=.=.=.=.=.=.=.=.=.k y y y g g c c v v N S S S v v v v S D H =.=.=.=.=.=.=.=.=.=.=.=.=.=.=.=.=.=.=.=.",
"=.=.=.=.=.=.=.=.=.=.=.=.=.=.=.=.=.=.=.=.=.=.=.k f g g x x n M M N M H N S D S S S S J I =.=.=.=.=.=.=.=.=.=.=.=.=.=.=.=.=.=.=.=.",
"=.=.=.=.=.=.=.=.=.=.=.=.=.=.=.=.=.=.=.=.=.=.=.=.g x B n n A M M S H G D G P P P H H J I E =.=.=.=.=.=.=.=.=.=.=.=.=.=.=.=.=.=.=.",
"=.=.=.=.=.=.=.=.=.=.=.=.=.=.=.=.=.=.=.=.=.=.=.=.B B C A A A M H K =.=.=.=.=.=.=.P P H I E =.=.=.=.=.=.=.=.=.=.=.=.=.=.=.=.=.=.=.",
"=.=.=.=.=.=.=.=.=.=.=.=.=.=.=.=.=.=.=.=.=.=.=.=.T T A L H H H G =.=.=.=.=.=.=.=.=.=.P I E =.=.=.=.=.=.=.=.=.=.=.=.=.=.=.=.=.=.=.",
"=.=.=.=.=.=.=.=.=.=.=.=.=.=.=.=.=.=.=.=.=.=.=.=.` ~ I H H J P =.=.=.=.=.=.=.=.=.=.=.P P Y Q =.=.=.=.=.=.=.=.=.=.=.=.=.=.=.=.=.=.",
"=.=.=.=.=.=.=.=.=.=.=.=.=.=.=.=.=.=.=.=.=.=.=.=.] ( I J H J P =.=.=.=.=.=.=.=.=.=.=.=.=.R W =.=.=.=.=.=.=.=.=.=.=.=.=.=.=.=.=.=.",
"=.=.=.=.=.=.=.=.=.=.=.=.=.=.=.=.=.=.=.=.=.=.=.=.O.] ~ I H P =.=.=.=.=.=.=.=.=.=.=.=.=.=.=.=.=.=.=.=.=.=.=.=.=.=.=.=.=.=.=.=.=.=.",
"=.=.=.=.=.=.=.=.=.=.=.=.=.=.=.=.=.=.=.=.=.=.=.=.O. .( I J P =.=.=.=.=.=.=.=.=.=.=.=.=.=.=.=.=.=.=.=.=.=.=.=.=.=.=.=.=.=.=.=.=.=.",
"=.=.=.=.=.=.=.=.=.=.=.=.=.=.=.=.=.=.=.=.=.=.=.=.+.X.) I L =.=.=.=.=.=.=.=.=.=.=.=.=.=.=.=.=.=.=.=.=.=.=.=.=.=.=.=.=.=.=.=.=.=.=.",
"=.=.=.=.=.=.=.=.=.=.=.=.=.=.=.=.=.=.=.=.=.=.=.+.X.X.( J =.=.=.=.=.=.=.=.=.=.=.=.=.=.=.=.=.=.=.=.=.=.=.=.=.=.=.=.=.=.=.=.=.=.=.=.",
"=.=.=.=.=.=.=.=.=.=.=.=.=.=.=.=.=.=.=.=.=.=.=.o...} ^ =.=.=.=.=.=.=.=.=.=.=.=.=.=.=.=.=.=.=.=.=.=.=.=.=.=.=.=.=.=.=.=.=.=.=.=.=.",
"=.=.=.=.=.=.=.=.=.=.=.=.=.=.=.=.=.=.=.=.=.=.=.=.[ W =.=.=.=.=.=.=.=.=.=.=.=.=.=.=.=.=.=.=.=.=.=.=.=.=.=.=.=.=.=.=.=.=.=.=.=.=.=."
};
